<?xml version="1.0" standalone="no"?>
<!DOCTYPE svg PUBLIC "-//W3C//DTD SVG 20010904//EN"
 "http://www.w3.org/TR/2001/REC-SVG-20010904/DTD/svg10.dtd">
<svg version="1.0" xmlns="http://www.w3.org/2000/svg"
 width="1500.000000pt" height="1600.000000pt" viewBox="0 0 1500.000000 1600.000000"
 preserveAspectRatio="xMidYMid meet">

<g transform="translate(0.000000,1600.000000) scale(0.100000,-0.100000)"
fill="#000000" stroke="none">
<path d="M4520 15561 l0 -100 85 -3 c47 -2 85 0 85 5 0 7 -116 145 -152 180
-17 17 -18 14 -18 -82z"/>
<path d="M6360 15380 c-25 -5 -189 -9 -365 -9 -356 -1 -334 3 -349 -71 -4 -19
-13 -48 -21 -65 -14 -31 -27 -81 -66 -239 -11 -49 -25 -99 -29 -110 -5 -12
-14 -42 -20 -68 -7 -27 -16 -48 -20 -48 -7 0 -24 32 -51 98 -5 12 -13 32 -18
45 -6 12 -20 47 -31 77 -43 109 -55 135 -67 148 -7 7 -13 23 -13 35 0 30 -48
121 -78 149 l-25 23 6 -40 c4 -22 7 -54 7 -71 0 -27 5 -32 39 -42 39 -12 66
-52 34 -52 -8 0 -17 10 -20 21 -5 19 -8 20 -17 7 -11 -15 -17 -18 -36 -18 -18
0 -11 -36 11 -56 34 -31 40 -49 19 -62 -16 -10 -29 2 -112 99 -98 116 -138
169 -138 180 0 13 29 18 36 7 4 -7 3 -8 -4 -4 -8 5 -12 -1 -11 -16 0 -13 3
-17 6 -10 9 24 32 11 78 -43 26 -30 51 -55 56 -55 5 0 9 13 9 29 0 17 4 32 9
35 4 3 7 22 4 42 -3 27 -1 34 9 28 10 -6 10 -4 0 9 -12 14 -32 15 -165 10 -97
-3 -247 1 -412 11 -143 9 -312 18 -375 19 -107 2 -116 1 -137 -20 -35 -35 -31
-100 11 -187 54 -112 116 -247 116 -251 0 -4 28 -64 97 -212 24 -53 46 -67 57
-37 3 8 10 12 16 9 5 -3 10 -2 10 2 0 5 14 17 30 26 23 14 30 15 31 5 0 -7 2
-21 4 -30 2 -10 -3 -18 -11 -18 -8 0 -14 4 -14 10 0 5 -13 -4 -29 -20 -28 -30
-49 -41 -35 -18 4 7 3 8 -4 4 -18 -11 27 -66 52 -66 12 1 32 7 46 15 57 33
130 1 130 -57 0 -39 -29 -87 -57 -94 -12 -3 -29 -14 -38 -24 -14 -16 -11 -25
42 -132 32 -62 73 -150 92 -193 18 -44 37 -88 43 -98 9 -17 91 -254 105 -302
3 -11 11 -27 17 -35 31 -39 36 -76 36 -253 0 -242 -17 -633 -36 -837 -9 -91
-14 -183 -13 -205 4 -40 4 -40 54 -47 28 -4 82 -11 120 -15 l70 -7 -85 -7
c-343 -27 -633 -218 -787 -521 -37 -71 -49 -107 -74 -213 -20 -82 -21 -108
-16 -285 12 -398 58 -700 134 -877 7 -17 13 -34 13 -37 0 -10 70 -149 90 -181
11 -16 25 -40 31 -52 7 -13 16 -23 21 -23 4 0 8 -5 8 -11 0 -12 153 -169 164
-169 4 0 16 -9 28 -20 18 -17 177 -98 233 -120 11 -4 34 -13 50 -20 79 -34
236 -52 365 -44 52 3 97 10 100 14 3 4 28 10 55 13 28 4 43 4 35 1 -8 -3 -22
-8 -30 -11 -27 -11 -44 -14 -105 -22 -58 -8 -56 -11 13 -17 79 -6 36 -14 -79
-14 -287 -1 -810 -62 -932 -109 -16 -6 -39 -11 -52 -11 -13 0 -28 -6 -32 -14
-4 -7 -33 -22 -63 -33 l-55 -21 2 -570 2 -569 30 -34 c42 -45 42 -84 0 -107
l-31 -17 6 -475 c3 -261 9 -572 13 -690 l6 -215 26 -25 c31 -29 60 -53 116
-95 22 -16 42 -33 43 -37 2 -4 10 -8 18 -8 8 0 14 -4 14 -8 0 -5 28 -29 63
-54 34 -25 73 -56 87 -68 13 -11 39 -30 57 -41 18 -11 33 -25 33 -30 0 -5 6
-9 13 -9 6 0 -11 22 -39 48 -55 50 -64 58 -188 165 -43 37 -84 73 -91 80 -6 7
-34 31 -61 54 l-49 42 6 208 c4 114 10 444 14 733 l8 525 -37 47 c-20 27 -32
49 -26 53 5 3 14 4 19 0 5 -3 12 4 16 15 4 11 11 18 16 15 5 -4 9 181 9 474 0
265 3 481 8 481 4 0 7 -28 8 -62 4 -934 2 -860 24 -848 31 16 54 5 94 -47 40
-51 44 -63 21 -63 -8 0 -15 -4 -15 -10 0 -18 -39 -31 -59 -20 -31 16 -36 48
-12 81 12 16 17 30 11 34 -14 8 -30 -3 -30 -21 0 -8 -7 -14 -15 -14 -19 0 -21
-90 -3 -108 10 -10 10 -17 0 -32 -9 -15 -12 -183 -12 -714 l0 -694 50 -38 c28
-21 50 -42 50 -46 0 -4 7 -8 15 -8 8 0 15 -3 15 -7 0 -5 34 -35 75 -68 41 -33
75 -63 75 -67 0 -5 7 -8 15 -8 8 0 15 -4 15 -8 0 -5 21 -24 48 -43 26 -18 62
-48 80 -66 18 -18 36 -33 41 -33 4 0 16 -9 26 -20 10 -11 21 -16 24 -11 3 5 6
508 6 1118 l0 1108 -21 3 c-12 2 -34 16 -49 33 -16 16 -36 29 -46 29 -11 0
-19 11 -23 32 -7 37 -2 45 18 29 8 -6 20 -10 27 -9 9 2 13 -5 11 -17 -4 -29
40 -69 67 -60 27 8 26 21 -4 61 -32 41 -32 65 1 103 23 28 25 38 22 96 -3 73
-7 69 87 92 151 36 336 66 510 83 120 11 483 11 565 0 99 -13 183 -30 200 -39
9 -5 36 -12 60 -16 24 -4 51 -11 60 -16 18 -11 96 -38 128 -46 12 -3 22 -9 22
-14 0 -5 5 -9 11 -9 14 0 102 -42 109 -52 3 -3 18 -10 33 -13 15 -4 27 -11 27
-15 0 -5 14 -11 30 -15 17 -4 30 -10 30 -15 0 -5 14 -11 30 -15 17 -4 30 -10
30 -15 0 -4 10 -10 23 -14 21 -5 129 -105 187 -172 34 -41 110 -152 120 -178
5 -13 6 -2 3 32 -4 34 -1 61 7 77 l13 23 23 -41 c21 -39 54 -106 89 -182 26
-59 63 -189 91 -325 27 -130 25 -457 -4 -560 -30 -107 -49 -166 -61 -188 -9
-17 1 -30 69 -96 44 -42 84 -76 90 -76 5 0 10 -4 10 -8 0 -4 23 -25 51 -47 55
-42 103 -98 97 -115 -1 -5 -19 5 -40 23 -55 49 -78 68 -133 112 -87 69 -185
174 -185 198 0 14 -10 2 -30 -38 l-30 -60 67 -65 c70 -67 140 -126 199 -169
19 -13 34 -28 34 -33 0 -4 7 -8 15 -8 8 0 15 -4 15 -8 0 -5 27 -28 60 -52 33
-24 60 -47 60 -52 0 -4 7 -8 15 -8 8 0 15 -4 15 -8 0 -5 20 -23 44 -40 40 -29
60 -45 154 -130 21 -17 45 -35 55 -38 9 -3 17 -9 17 -14 0 -4 8 -10 18 -14 9
-3 31 -15 47 -25 121 -79 406 -183 580 -212 28 -5 84 -15 125 -23 l75 -14 -55
-1 c-949 -13 -1837 -91 -2149 -187 -25 -8 -52 -14 -60 -14 -9 0 -29 -7 -45
-15 -15 -8 -33 -15 -39 -15 -6 0 -28 -8 -48 -17 -30 -14 -42 -27 -54 -62 -8
-25 -15 -57 -15 -73 0 -35 -20 -36 -75 -3 -95 57 -179 95 -208 95 -18 0 -79 6
-137 14 -104 15 -285 35 -494 56 l-110 11 -28 -30 c-15 -16 -28 -34 -28 -40 0
-5 28 -12 63 -15 34 -3 127 -11 207 -18 80 -7 150 -16 155 -19 6 -4 63 -10
128 -14 64 -4 120 -11 123 -16 3 -5 21 -9 40 -9 l35 0 -5 -142 c-2 -79 -11
-278 -20 -443 -9 -165 -22 -421 -30 -570 -17 -319 -34 -514 -45 -535 -5 -9
-12 -49 -16 -90 -4 -41 -11 -79 -15 -85 -4 -5 -11 -35 -15 -65 -4 -30 -10 -59
-14 -65 -6 -9 -14 -43 -43 -178 -7 -31 -16 -57 -20 -57 -4 0 -10 -20 -14 -45
-3 -25 -10 -48 -15 -50 -4 -3 -11 -26 -15 -50 -3 -25 -10 -45 -14 -45 -5 0
-11 -18 -15 -40 -4 -22 -10 -42 -15 -45 -5 -3 -11 -23 -15 -45 -4 -22 -10 -40
-15 -40 -4 0 -11 -16 -14 -35 -4 -19 -13 -47 -21 -62 -8 -15 -15 -34 -15 -41
0 -7 -4 -20 -10 -30 -5 -9 -19 -39 -30 -67 -12 -27 -25 -59 -30 -70 -5 -11
-18 -42 -30 -70 -11 -27 -27 -62 -35 -77 -8 -14 -15 -33 -15 -42 0 -9 -4 -16
-9 -16 -5 0 -12 -13 -16 -30 -4 -16 -10 -30 -15 -30 -4 0 -10 -10 -14 -22 -10
-41 -68 -96 -109 -103 -20 -4 -37 -11 -37 -15 0 -5 -22 -11 -50 -15 -27 -4
-50 -10 -50 -15 0 -4 -25 -11 -55 -15 -30 -3 -57 -10 -60 -15 -2 -4 -29 -11
-60 -15 -30 -3 -57 -10 -60 -15 -2 -4 -31 -11 -62 -15 -32 -4 -62 -10 -68 -15
-5 -4 -39 -11 -75 -14 -36 -4 -69 -11 -75 -16 -10 -8 -64 -19 -120 -24 -52 -5
-75 -17 -81 -42 -6 -25 -24 -34 -24 -11 0 20 -32 32 -87 32 -48 0 -52 2 -49
22 3 12 9 30 15 41 14 26 14 62 1 62 -5 0 -10 7 -10 16 0 14 -1 14 -16 0 -17
-17 -39 -22 -29 -7 3 5 1 12 -4 15 -5 3 -9 -23 -9 -59 0 -36 4 -62 9 -59 5 3
9 -3 10 -13 0 -10 3 -13 6 -5 2 6 9 12 14 12 4 0 6 -6 3 -13 -6 -18 33 -67 53
-67 9 0 13 -3 10 -7 -9 -8 12 -33 27 -33 6 0 3 5 -7 11 -17 10 -15 29 4 29 6
0 7 -4 4 -10 -3 -6 1 -7 9 -4 9 3 14 10 11 14 -3 4 1 13 9 19 11 9 15 7 19 -9
3 -11 1 -18 -4 -14 -5 3 -9 -2 -9 -10 0 -8 -12 -22 -26 -29 l-27 -14 47 -24
c88 -45 101 -52 106 -58 3 -3 23 -15 45 -26 38 -19 174 -95 205 -115 8 -5 38
-21 65 -35 28 -14 57 -30 65 -35 111 -70 123 -74 207 -73 45 1 119 8 165 17
345 68 389 78 561 122 200 52 316 100 344 142 34 51 43 67 74 132 67 140 98
208 133 295 21 50 41 99 45 110 5 11 16 40 26 65 9 25 21 55 26 68 49 127 149
456 184 607 9 39 21 88 26 110 27 115 49 281 74 552 l7 73 67 -36 c36 -21 76
-44 89 -52 25 -16 29 -15 273 58 15 4 32 4 39 0 16 -10 8 -1002 -9 -1110 -35
-231 -65 -496 -82 -750 -6 -91 -12 -170 -14 -176 -3 -11 161 -111 265 -160 8
-4 47 -26 85 -48 39 -23 88 -50 110 -61 22 -11 42 -23 45 -26 6 -7 53 -32 90
-49 13 -6 27 -14 30 -18 3 -4 26 -17 51 -30 44 -21 64 -23 311 -29 450 -11
922 20 1061 70 81 29 138 113 166 247 5 19 14 55 20 80 106 390 222 1180 221
1510 0 58 -5 148 -10 200 -11 106 1 308 27 475 21 137 31 167 51 161 92 -28
551 -32 692 -6 225 40 363 113 419 221 28 53 43 148 39 248 -3 84 -3 85 -32
92 -35 10 -78 49 -72 65 3 7 -5 15 -17 18 -12 3 -18 8 -15 11 3 4 16 1 28 -5
18 -9 21 -9 18 1 -2 7 -17 14 -34 16 -16 2 -34 10 -40 18 -6 9 -15 10 -24 5
-9 -5 -19 -5 -27 2 -14 11 -7 32 8 22 5 -3 6 -10 3 -16 -4 -7 -2 -8 5 -4 9 6
9 11 0 22 -9 11 -8 18 2 32 12 15 12 16 -2 4 -22 -17 -46 7 -26 27 9 10 8 11
-5 6 -14 -6 -18 -2 -18 16 l1 24 23 -26 c37 -43 60 -51 74 -28 7 10 19 19 28
19 8 0 13 4 10 9 -3 5 5 17 19 27 18 14 21 22 14 35 -10 20 5 37 16 19 5 -8
11 -8 19 -1 7 6 16 8 19 4 4 -3 7 11 7 31 0 51 -45 218 -77 285 -31 67 -102
139 -168 172 -28 13 -93 49 -145 79 -52 30 -113 64 -135 75 -22 11 -42 23 -45
27 -3 4 -17 12 -30 18 -14 5 -43 21 -65 33 -86 50 -142 81 -180 101 -22 12
-47 26 -55 31 -42 27 -96 37 -213 42 -107 5 -126 8 -116 19 6 8 26 14 45 14
18 0 45 5 61 11 15 6 46 14 68 19 71 15 247 91 330 143 99 61 239 189 310 282
20 28 40 52 44 55 7 6 27 37 41 65 6 11 19 34 29 50 96 150 208 501 242 760
36 278 54 490 45 552 -3 26 -10 92 -16 145 -5 53 -14 107 -19 120 -4 13 -19
56 -32 96 -13 39 -26 72 -30 72 -4 0 -10 14 -14 30 -4 17 -11 30 -16 30 -5 0
-9 5 -9 10 0 20 -45 75 -122 150 -42 41 -82 80 -90 85 -51 39 -116 93 -133
111 -11 11 -29 26 -40 32 -35 20 6 13 50 -8 22 -11 46 -19 53 -20 6 0 12 -3
12 -7 0 -5 14 -16 30 -25 17 -9 30 -14 30 -11 0 9 -70 73 -81 73 -5 0 -9 4 -9
8 0 5 -21 24 -47 43 -26 18 -54 40 -63 49 -9 8 -38 33 -65 55 -67 53 -92 75
-129 108 -17 15 -49 40 -71 55 -22 15 -42 30 -45 33 -3 3 -12 9 -20 12 -8 4
-28 16 -45 27 -99 65 -296 125 -520 158 -93 13 -187 17 -417 17 l-297 0 -5 26
c-3 14 -8 71 -12 125 l-7 100 79 -4 c82 -4 104 -13 104 -41 0 -18 78 -29 355
-52 66 -5 142 -14 168 -19 26 -6 61 -10 77 -10 27 0 30 3 30 33 0 17 -4 48
-10 67 -5 19 -14 71 -20 115 -5 44 -16 123 -24 175 -8 52 -19 133 -25 180 -7
47 -16 104 -21 128 -6 24 -7 48 -4 54 6 10 26 -33 44 -97 4 -16 18 -55 30 -85
12 -30 32 -86 45 -125 52 -151 77 -220 85 -230 4 -5 11 -26 14 -45 7 -31 20
-67 47 -122 5 -10 9 -24 9 -31 0 -10 22 -17 71 -23 56 -7 74 -13 83 -29 6 -11
12 -22 14 -25 4 -6 112 -17 277 -29 72 -6 175 -15 230 -20 186 -20 350 -34
446 -38 l96 -5 -3 119 c-3 65 -9 177 -15 248 -5 72 -14 220 -19 330 -5 110
-14 287 -21 394 l-12 195 -34 34 c-43 42 -73 91 -73 116 0 18 -1 18 -17 3 -16
-13 -20 -14 -37 -1 -18 12 -15 19 7 15 4 0 7 2 8 7 0 4 2 21 4 37 3 23 2 26
-6 13 -17 -31 -56 2 -43 37 4 8 12 15 19 15 14 0 51 -50 47 -64 -2 -5 20 10
48 34 54 46 57 51 35 70 -8 7 -15 23 -15 36 0 12 7 29 15 38 17 17 20 199 5
326 -5 41 -12 164 -16 273 l-7 197 -47 0 -48 0 -8 68 -9 67 -353 3 -353 2 6
-147 c8 -207 32 -717 50 -1043 9 -151 15 -290 15 -308 0 -36 -15 -35 -31 1 -5
12 -18 36 -29 52 -11 17 -23 37 -27 45 -4 8 -33 58 -65 111 -32 53 -58 101
-58 107 0 6 -3 12 -7 14 -11 4 -83 124 -83 137 0 6 -4 11 -9 11 -5 0 -14 12
-20 28 -6 15 -20 41 -31 57 -11 17 -23 37 -27 45 -3 8 -18 33 -32 55 -38 59
-49 78 -58 95 -4 8 -33 58 -65 111 -32 53 -58 101 -58 107 0 6 -3 12 -8 14 -9
4 -82 126 -82 139 0 5 -4 9 -9 9 -5 0 -14 12 -21 28 -24 56 -36 73 -57 78 -21
6 -93 101 -93 123 0 8 -83 11 -271 11 -253 0 -270 -1 -265 -17 2 -10 9 -148
15 -308 32 -830 42 -1100 56 -1415 9 -190 15 -363 14 -385 l-2 -40 -8 45 c-5
25 -13 97 -18 160 -12 153 -28 315 -42 425 -6 50 -15 137 -19 195 -19 243 -31
369 -41 430 -6 36 -14 119 -19 185 -17 226 -30 370 -40 425 -5 30 -13 106 -16
168 -4 69 -11 112 -18 113 -6 1 -25 0 -43 -1 -35 -2 -37 3 -48 88 l-7 52 -46
0 c-26 0 -101 -7 -167 -15 -66 -8 -185 -22 -265 -30 -635 -70 -665 -73 -805
-90 -71 -8 -143 -15 -160 -15 -16 0 -65 -5 -108 -12 l-77 -12 -14 -50 c-7 -28
-21 -85 -30 -126 -9 -41 -23 -100 -31 -130 -14 -55 -32 -130 -60 -255 -34
-147 -47 -203 -60 -255 -7 -30 -19 -77 -25 -105 -7 -27 -16 -70 -21 -95 -4
-25 -12 -58 -17 -75 -5 -16 -17 -66 -27 -110 -9 -44 -24 -100 -31 -124 -8 -25
-14 -53 -14 -64 0 -11 -6 -43 -14 -71 -8 -28 -22 -85 -31 -126 -9 -41 -22
-100 -30 -130 -23 -93 -42 -171 -60 -255 -19 -88 -37 -167 -56 -235 -24 -92
-39 -174 -31 -182 4 -4 48 -8 97 -10 89 -3 90 -3 87 -28 l-3 -25 446 0 445 0
0 70 c0 39 4 131 10 205 5 74 14 276 18 447 5 172 10 315 13 317 7 7 140 -14
162 -25 16 -9 17 -41 17 -449 0 -299 3 -441 11 -445 6 -4 46 -9 89 -12 76 -6
79 -7 82 -32 l3 -26 205 -7 c113 -4 244 -12 291 -18 47 -5 137 -10 200 -10 92
-1 110 -3 94 -12 -11 -7 -42 -15 -70 -19 -250 -34 -560 -158 -744 -298 -69
-53 -211 -185 -211 -196 0 -2 -12 -16 -26 -32 -51 -55 -184 -275 -184 -304 0
-4 -14 -38 -32 -76 l-31 -70 -29 29 c-15 16 -28 31 -28 33 0 6 -100 105 -106
105 -3 0 -20 16 -37 36 -18 20 -45 51 -62 68 -16 17 -41 44 -55 59 -21 25 -22
27 -5 21 11 -4 22 -10 25 -13 3 -4 16 -12 30 -19 14 -6 36 -19 50 -29 19 -12
17 -9 -6 13 -33 31 -50 45 -129 109 -73 59 -96 78 -117 98 -10 9 -22 17 -28
17 -5 0 -10 4 -10 8 0 4 -23 26 -52 47 -28 22 -56 44 -62 50 -26 26 -150 117
-179 132 -18 8 -34 19 -37 22 -12 14 -172 85 -248 109 -135 44 -308 82 -369
82 -24 0 -43 4 -43 9 0 6 -15 12 -32 14 -18 2 -3 5 34 5 37 1 69 6 72 11 4 5
24 12 46 16 22 4 40 10 40 15 0 4 14 10 30 14 17 3 36 10 43 16 30 25 108 80
112 80 9 0 43 38 94 106 28 38 58 78 66 89 8 10 15 25 15 32 0 7 4 13 9 13 5
0 12 14 16 30 4 17 11 30 16 30 5 0 9 8 9 18 0 9 7 30 15 46 8 15 15 33 15 40
0 6 6 23 14 38 8 14 17 46 21 70 4 24 11 48 15 53 5 6 11 37 15 70 4 33 11 65
15 70 4 6 10 47 14 93 l6 82 -50 0 -50 0 0 70 0 70 -345 0 -345 0 0 -58 c0
-60 -25 -168 -54 -235 -23 -53 -95 -122 -135 -130 -99 -20 -186 1 -251 61 -27
25 -50 50 -50 54 0 5 4 7 9 4 5 -4 6 4 3 16 -5 19 -7 20 -10 6 -6 -28 -16 -21
-42 30 -14 26 -28 49 -32 52 -3 3 -9 22 -13 43 -4 20 -11 37 -15 37 -5 0 -11
24 -15 53 -4 28 -12 58 -19 66 -16 20 -15 409 0 419 7 4 15 33 19 65 4 31 11
57 16 57 5 0 9 5 9 11 0 41 81 156 101 143 5 -3 6 2 3 10 -4 10 2 17 20 22 14
3 26 10 26 15 0 12 127 11 135 -1 3 -5 14 -10 24 -10 32 0 110 -50 145 -93 63
-79 125 -249 126 -345 l0 -43 73 6 c39 3 97 1 127 -4 48 -7 50 -9 18 -10 -31
-1 -38 -5 -38 -21 0 -19 5 -20 148 -14 81 3 161 10 177 14 17 5 107 12 201 15
l170 7 13 88 c10 65 11 101 3 136 -6 27 -13 80 -17 119 -3 38 -10 74 -14 80
-5 5 -11 27 -15 47 -4 20 -13 50 -21 65 -8 15 -15 36 -15 45 0 9 -3 18 -7 20
-5 2 -17 20 -27 41 -24 45 -51 79 -59 71 -3 -3 -4 1 -4 9 4 31 -250 297 -283
297 -6 0 -10 3 -10 8 0 4 -35 25 -77 46 -43 21 -85 41 -93 46 -29 14 -136 43
-225 60 l-90 18 80 3 c122 4 216 -2 255 -16 119 -43 305 -79 332 -64 20 11 24
39 7 56 -8 8 -9 33 -5 75 8 75 8 74 0 209 -4 76 -2 136 10 209 9 56 14 106 10
111 -3 5 -30 28 -61 50 -39 29 -52 44 -42 49 8 5 29 -5 58 -27 l46 -35 3 32
c2 17 -1 46 -7 63 -8 21 -8 34 -1 41 5 5 10 31 10 56 0 26 7 70 15 98 9 29 18
88 20 132 3 44 9 88 14 97 6 10 20 38 31 63 28 61 67 128 100 170 15 19 40 57
56 85 50 85 359 698 439 870 43 93 55 120 83 185 5 14 19 45 30 70 10 25 27
65 37 90 22 56 38 95 58 140 8 19 22 53 32 75 41 98 51 115 87 135 21 12 40
25 43 30 8 13 -5 38 -23 45 -26 10 -552 14 -602 5z m-1310 -232 c0 -23 -16
-39 -32 -33 -20 8 -78 -41 -78 -67 0 -11 22 -43 50 -71 49 -51 50 -52 77 -37
15 8 35 30 43 47 29 62 71 51 50 -12 -8 -23 -27 -47 -52 -66 -44 -31 -71 -35
-104 -16 -31 17 -103 104 -110 132 -8 33 22 90 59 114 36 23 97 28 97 9z
m-280 -213 c11 -13 9 -20 -13 -43 -33 -34 -33 -39 -6 -69 18 -18 20 -25 9 -38
-18 -22 -34 -19 -58 15 -32 43 -29 85 10 121 37 34 41 34 58 14z m200 -112 c0
-13 -15 -40 -34 -61 -33 -35 -36 -36 -52 -20 -17 17 -17 19 10 47 l29 30 -27
35 -26 35 21 15 c21 14 24 13 50 -21 16 -20 29 -46 29 -60z m-426 -15 c-11
-17 31 -7 51 12 20 19 23 19 35 5 11 -13 9 -19 -9 -38 -25 -27 -26 -40 -6 -57
10 -8 13 -21 8 -39 -3 -14 -2 -23 2 -19 4 4 25 -2 46 -14 32 -18 43 -19 63
-10 19 8 27 8 36 -3 15 -18 7 -31 -32 -51 -24 -12 -36 -13 -57 -4 -35 14 -83
83 -75 107 4 12 3 14 -3 5 -7 -10 -14 -8 -28 8 -11 12 -26 18 -35 15 -20 -6
-49 23 -34 33 13 9 16 59 4 67 -6 4 -7 -1 -3 -12 5 -17 4 -17 -11 -2 -12 11
-15 24 -10 44 l7 28 28 -34 c15 -18 25 -37 23 -41z m117 -265 c24 -29 84 -160
119 -260 15 -44 16 -53 4 -53 -8 0 -14 7 -14 15 0 8 -3 15 -8 15 -4 0 -17 21
-29 48 -12 26 -35 77 -52 115 -17 37 -31 74 -31 83 0 8 -5 24 -10 35 -13 24 2
25 21 2z m1211 -1705 c38 -42 48 -68 25 -68 -7 0 -18 -9 -25 -20 -22 -36 -72
-19 -72 25 0 12 9 30 20 40 21 19 18 35 -7 35 -8 0 -17 -9 -20 -20 -7 -26 -23
-26 -23 -1 0 19 34 51 54 51 5 0 26 -19 48 -42z m-129 -24 c3 -4 1 -16 -4 -27
-9 -16 -5 -28 20 -64 35 -50 36 -53 17 -53 -7 0 -32 25 -55 55 -40 53 -46 80
-16 68 9 -3 15 1 15 11 0 16 12 21 23 10z m-57 -101 c47 -51 43 -99 -11 -118
-24 -9 -31 -6 -61 28 -37 40 -43 71 -17 99 23 26 60 22 89 -9z m-131 -69 c73
-96 72 -93 55 -104 -10 -6 -36 3 -87 31 -40 22 -73 38 -73 35 0 -4 20 -31 45
-62 49 -60 49 -60 36 -69 -6 -3 -39 31 -76 76 -52 65 -63 84 -54 95 10 12 24
8 85 -25 41 -22 74 -38 74 -35 0 4 -18 29 -40 56 -22 28 -40 55 -40 59 0 24
30 1 75 -57z m-280 -440 c89 -15 226 -50 255 -64 8 -4 32 -16 53 -26 38 -19
48 -34 22 -34 -8 0 -15 4 -15 9 0 6 -21 13 -47 17 -27 3 -54 11 -61 17 -7 6
-98 11 -220 12 -181 2 -189 1 -67 -4 127 -6 145 -13 38 -14 -31 0 -40 -4 -36
-14 4 -9 -3 -16 -16 -20 -17 -4 -21 -13 -21 -44 0 -22 5 -39 11 -39 8 0 10
-20 5 -67 -3 -38 -6 -114 -7 -171 -1 -80 -5 -104 -16 -111 -13 -7 -12 -11 7
-24 23 -16 40 -14 40 4 0 6 -4 7 -10 4 -5 -3 -10 -3 -11 2 0 4 -2 16 -4 25 -2
11 2 15 11 11 8 -3 11 -9 8 -14 -3 -5 0 -9 5 -9 6 0 11 -10 11 -22 0 -12 7
-30 17 -40 10 -12 12 -18 4 -18 -7 0 1 -12 17 -27 16 -16 33 -38 36 -49 9 -30
75 -96 88 -88 6 4 8 2 5 -4 -6 -9 19 -70 34 -82 4 -3 10 -16 14 -30 4 -14 11
-27 15 -30 4 -3 11 -24 14 -46 7 -42 7 -42 -27 -46 -48 -5 -57 0 -57 29 0 30
-25 123 -45 168 -8 17 -16 40 -20 53 -3 12 -10 22 -14 22 -5 0 -11 18 -15 40
-4 23 -11 38 -16 35 -6 -3 -10 -2 -10 3 0 15 -76 89 -99 97 -12 3 -21 10 -21
15 0 5 -16 12 -35 16 -19 3 -38 10 -41 15 -7 12 -194 12 -194 0 0 -5 -12 -12
-26 -15 -15 -4 -32 -12 -39 -19 -7 -7 -22 -19 -34 -27 -11 -8 -21 -18 -21 -23
0 -4 -11 -18 -24 -30 -14 -13 -28 -35 -31 -50 -4 -15 -11 -27 -16 -27 -5 0 -9
-6 -9 -12 0 -7 -7 -26 -15 -42 -8 -16 -18 -47 -21 -70 -4 -22 -12 -47 -18 -55
-15 -20 -15 -473 0 -492 6 -8 15 -35 18 -61 4 -27 11 -48 15 -48 5 0 11 -18
15 -40 3 -22 10 -40 15 -40 5 0 12 -12 15 -26 4 -15 12 -32 19 -39 7 -7 19
-23 27 -35 30 -46 72 -90 86 -90 12 0 18 -12 16 -31 -1 -4 8 -5 18 -2 11 3 20
1 20 -5 0 -6 15 -14 33 -17 17 -4 38 -12 44 -17 7 -6 52 -8 100 -6 121 5 185
39 251 133 30 44 72 174 72 224 0 18 5 41 10 52 10 18 24 19 281 19 l270 0 -3
-32 -3 -33 -216 -3 -217 -2 -7 -80 c-4 -44 -11 -80 -15 -80 -4 0 -10 -19 -13
-41 -3 -23 -11 -45 -18 -49 -6 -5 -12 -21 -13 -38 -1 -18 -6 -28 -13 -25 -17
7 -27 -36 -11 -55 9 -12 5 -11 -11 3 -22 18 -24 18 -18 2 4 -11 3 -16 -3 -12
-13 8 -42 -20 -32 -30 4 -5 1 -5 -7 0 -8 4 -17 2 -22 -6 -6 -11 -37 -14 -126
-14 -65 0 -106 -1 -90 -3 15 -2 27 -8 27 -13 0 -5 30 -9 68 -10 44 -1 58 -3
42 -8 -22 -6 -25 -13 -26 -51 -1 -25 5 -54 12 -65 8 -11 14 -37 14 -59 0 -37
1 -39 15 -20 14 18 14 17 15 -13 0 -23 -5 -33 -15 -33 -12 0 -15 -16 -15 -80
0 -47 4 -80 10 -80 6 0 10 18 10 40 0 22 5 40 10 40 14 0 12 -77 -2 -86 -6 -4
-53 -11 -102 -14 l-91 -7 95 -2 c156 -2 146 -21 -12 -21 -76 0 -138 4 -138 9
0 4 -30 11 -67 14 -38 4 -69 11 -71 17 -2 5 -13 10 -25 10 -12 1 -40 9 -62 20
-22 11 -43 19 -47 20 -8 0 -103 57 -123 72 -5 5 -26 22 -45 38 -19 16 -43 32
-52 36 -10 3 -18 9 -18 13 0 4 -13 20 -28 37 -102 106 -214 350 -256 559 -41
210 -45 243 -62 650 -7 160 11 277 57 390 23 55 31 72 42 90 61 98 80 125 88
125 5 0 9 4 9 10 0 12 98 110 110 110 6 0 10 4 10 9 0 8 89 70 115 80 6 2 16
9 24 15 13 10 26 15 131 53 146 52 365 67 535 37z m2775 -41 c0 -30 -3 -33
-30 -33 -16 0 -51 -5 -77 -10 -26 -6 -95 -14 -153 -20 -201 -18 -325 -31 -390
-41 -36 -5 -112 -15 -170 -20 -58 -6 -161 -17 -230 -24 -69 -8 -175 -20 -237
-26 -98 -11 -112 -15 -119 -33 -10 -31 -33 -133 -45 -201 -6 -33 -15 -64 -19
-70 -4 -5 -11 -35 -15 -65 -4 -30 -10 -59 -14 -65 -3 -5 -11 -35 -18 -65 -6
-30 -19 -86 -28 -125 -9 -38 -21 -95 -27 -125 -6 -30 -14 -59 -18 -65 -5 -5
-11 -36 -15 -68 -4 -31 -11 -59 -15 -62 -5 -3 -11 -32 -15 -65 -4 -33 -11 -62
-15 -65 -4 -3 -11 -32 -15 -65 -4 -33 -11 -62 -15 -65 -4 -3 -11 -32 -15 -65
-4 -33 -10 -60 -15 -60 -4 0 -10 -27 -14 -60 -4 -33 -11 -62 -15 -64 -5 -3
-11 -33 -15 -65 -4 -33 -11 -63 -15 -65 -5 -3 -11 -33 -15 -65 -4 -33 -11 -63
-15 -66 -5 -2 -12 -31 -16 -62 -4 -32 -10 -62 -13 -68 -7 -10 -24 -85 -43
-185 -6 -30 -14 -64 -18 -75 -5 -11 -13 -38 -17 -60 l-9 -40 -68 -3 c-67 -3
-69 -2 -62 20 3 13 10 39 14 58 5 19 16 60 25 91 9 31 16 65 16 76 0 11 6 39
14 64 7 24 21 78 30 119 42 182 75 326 91 390 13 54 31 130 59 253 32 140 48
205 61 257 7 30 19 78 25 105 7 28 16 68 20 90 4 22 13 63 20 90 6 28 19 77
27 110 30 123 42 172 57 240 72 325 59 297 142 312 38 6 89 12 114 12 25 1 97
8 160 16 63 8 180 21 260 30 557 61 683 75 795 88 110 14 115 12 115 -40z
m2272 17 c3 -17 2 -32 0 -35 -3 -3 -107 -5 -232 -5 -125 0 -229 -2 -231 -4 -5
-5 7 -327 21 -541 6 -88 13 -241 15 -340 3 -99 8 -213 11 -253 5 -66 8 -72 25
-67 10 4 19 3 19 -2 1 -4 14 -23 29 -41 l28 -33 38 25 c23 16 52 26 73 26 39
0 77 -34 161 -143 36 -47 41 -60 31 -72 -7 -8 -16 -15 -20 -15 -5 0 -38 36
-75 80 -37 44 -76 85 -86 91 -23 12 -53 -2 -69 -31 -9 -16 1 -33 65 -109 41
-50 75 -94 75 -98 0 -5 -8 -13 -18 -20 -16 -9 -32 6 -133 128 -63 77 -115 144
-117 149 -9 27 -17 5 -14 -40 3 -33 8 -50 17 -50 25 0 28 -39 5 -58 -16 -13
-19 -24 -14 -48 l6 -32 39 16 c46 18 88 5 114 -35 38 -57 14 -117 -59 -153
-49 -23 -61 -22 -69 10 -4 16 2 23 26 34 62 26 84 76 42 93 -9 3 -34 -2 -55
-12 l-39 -18 -3 -70 -3 -70 -41 69 c-57 96 -62 118 -69 304 -6 190 -29 652
-50 1050 -9 151 -15 292 -15 313 l0 37 284 0 284 0 4 -30z m-1479 -109 c9 -16
17 -32 17 -35 0 -3 -77 -6 -171 -6 l-171 0 5 -67 c3 -38 10 -210 16 -383 6
-173 16 -400 22 -505 5 -104 14 -329 20 -500 6 -170 13 -370 16 -442 l5 -133
-46 0 c-41 0 -48 3 -56 26 -6 14 -10 82 -10 152 0 70 -6 287 -15 482 -16 382
-42 1040 -50 1288 l-5 152 203 0 203 0 17 -29z m-3621 -68 c-2 -43 -6 -80 -8
-82 -8 -9 -12 7 -19 82 -7 72 -6 77 12 77 19 0 20 -5 15 -77z m18 -224 c0 -10
-4 -19 -10 -19 -5 0 -10 12 -10 26 0 14 4 23 10 19 6 -3 10 -15 10 -26z m2069
-299 c7 -41 16 -95 21 -120 6 -25 12 -72 16 -105 3 -33 9 -78 15 -100 5 -22
14 -76 19 -120 5 -44 12 -92 16 -107 5 -23 3 -28 -12 -28 -11 0 -31 6 -46 14
-14 8 -45 17 -67 21 -23 4 -41 10 -41 15 0 4 -20 11 -45 14 -25 4 -45 11 -45
15 0 5 -20 12 -45 15 -25 4 -45 11 -45 17 0 5 -7 9 -15 9 -8 0 -15 5 -15 10 0
14 5 13 115 -26 55 -20 114 -38 131 -41 36 -6 35 -21 10 145 -9 56 -23 148
-31 205 -9 56 -20 128 -25 159 -7 46 -5 66 8 100 9 24 20 45 24 46 5 2 8 12 8
22 0 10 6 20 13 23 8 2 14 -14 18 -52 4 -31 12 -90 18 -131z m381 46 c0 -21
-6 -25 -32 -28 -29 -3 -34 -7 -38 -38 -4 -29 -9 -35 -30 -35 -23 0 -25 3 -22
40 5 55 35 85 84 85 34 0 38 -3 38 -24z m-2370 -26 c0 -5 -5 -10 -11 -10 -5 0
-7 5 -4 10 3 6 8 10 11 10 2 0 4 -4 4 -10z m20 -26 c0 -8 -19 -13 -24 -6 -3 5
1 9 9 9 8 0 15 -2 15 -3z m2420 -80 c0 -46 -45 -94 -89 -94 -34 0 -45 12 -36
39 4 13 17 21 38 23 28 3 32 7 35 36 3 26 7 32 28 32 21 0 24 -5 24 -36z
m-590 -44 c0 -21 6 -71 14 -111 8 -41 17 -100 20 -133 7 -65 12 -62 -64 -35
-112 39 -118 44 -100 77 5 9 16 33 24 52 8 19 24 56 35 82 12 26 21 52 21 57
0 6 5 11 10 11 6 0 10 11 10 25 0 18 4 23 15 19 10 -4 15 -20 15 -44z m1890
-135 c0 -12 4 -25 9 -30 5 -6 14 -26 19 -45 11 -39 30 -94 43 -125 17 -41 41
-111 46 -135 3 -14 9 -29 13 -35 4 -5 12 -26 18 -45 6 -19 27 -80 47 -135 20
-55 39 -109 42 -120 3 -11 11 -34 19 -52 8 -17 14 -37 14 -45 0 -8 4 -18 9
-23 4 -6 20 -46 34 -90 25 -75 76 -221 90 -255 19 -45 40 -108 44 -133 3 -15
9 -30 14 -33 22 -14 8 -34 -25 -34 -33 0 -34 1 -59 78 -14 42 -35 102 -47 132
-12 30 -26 69 -30 85 -5 17 -15 48 -24 70 -42 114 -88 243 -96 270 -4 17 -18
55 -30 85 -63 163 -150 428 -150 458 0 15 -7 59 -15 97 -8 39 -15 81 -15 95 1
24 1 24 15 6 8 -11 15 -29 15 -41z m-3222 -12 c-16 -2 -40 -2 -55 0 -16 2 -3
4 27 4 30 0 43 -2 28 -4z m-195 -10 c-24 -2 -62 -2 -85 0 -24 2 -5 4 42 4 47
0 66 -2 43 -4z m260 -80 c-13 -2 -35 -2 -50 0 -16 2 -5 4 22 4 28 0 40 -2 28
-4z m-196 -10 c-20 -2 -52 -2 -70 0 -17 2 0 4 38 4 39 0 53 -2 32 -4z m4658
-35 c9 -13 27 -39 40 -58 14 -19 28 -43 31 -52 4 -10 11 -18 16 -18 12 0 58
-46 58 -59 0 -12 -59 -71 -71 -71 -12 0 -12 37 1 45 14 8 13 45 -1 45 -6 0 -8
7 -5 16 4 10 2 13 -6 8 -7 -5 -9 0 -6 13 3 12 1 27 -4 34 -8 11 -9 10 -4 -3 6
-20 -5 -30 -22 -19 -6 4 -30 31 -52 61 -37 49 -38 54 -22 66 23 18 29 17 47
-8z m-105 -129 c65 -88 102 -118 136 -111 23 4 26 2 21 -12 -4 -10 -3 -15 3
-11 6 3 10 2 10 -4 0 -14 -34 -31 -62 -31 -35 0 -61 22 -134 116 -63 80 -65
86 -48 99 11 8 21 14 24 14 3 1 25 -27 50 -60z m-2892 -306 l32 -6 0 -398 0
-399 -55 0 -55 0 0 411 0 411 23 -6 c12 -4 37 -9 55 -13z m-1481 -85 c-3 -7
-5 -2 -5 12 0 14 2 19 5 13 2 -7 2 -19 0 -25z m-597 -298 c-24 -15 -36 -11
-14 4 10 8 21 12 24 10 2 -3 -2 -9 -10 -14z m383 -205 c-3 -9 -8 -14 -10 -11
-3 3 -2 9 2 15 9 16 15 13 8 -4z m-133 -135 c-8 -5 -19 -10 -25 -10 -5 0 -3 5
5 10 8 5 20 10 25 10 6 0 3 -5 -5 -10z m120 -24 c0 -2 -7 -7 -16 -10 -8 -3
-12 -2 -9 4 6 10 25 14 25 6z m-196 -20 c-3 -8 -15 -17 -27 -20 -36 -9 -42 -7
-22 8 11 8 23 12 27 10 4 -2 9 0 13 6 9 15 15 12 9 -4z m-84 -35 c0 -11 -83
-26 -102 -18 -7 3 3 6 22 6 19 1 42 6 50 11 19 12 30 13 30 1z m150 -41 c-8
-5 -22 -9 -30 -9 -10 0 -8 3 5 9 27 12 43 12 25 0z m-50 -27 c-8 -3 -23 -10
-32 -15 -11 -5 -18 -5 -18 1 0 10 23 18 50 19 13 0 13 0 0 -5z m4270 -536
c175 -29 246 -52 285 -93 11 -11 29 -26 40 -33 17 -10 15 -11 -15 -5 -19 4
-37 10 -40 14 -3 4 -21 11 -40 15 -19 4 -39 11 -45 15 -5 5 -32 11 -60 15 -27
4 -54 11 -60 15 -17 13 -283 42 -410 45 -66 1 -78 0 -27 -2 50 -2 92 -8 92
-12 0 -5 39 -11 88 -14 129 -8 353 -57 447 -97 11 -5 41 -18 67 -29 26 -12 51
-21 57 -21 5 0 11 -4 13 -8 2 -4 21 -19 43 -32 22 -13 46 -29 54 -35 18 -13
143 -138 156 -156 18 -24 75 -119 75 -125 0 -3 6 -20 14 -37 29 -66 45 -136
61 -272 17 -137 17 -145 -4 -330 -35 -310 -61 -450 -125 -670 -33 -114 -41
-134 -115 -285 -58 -118 -65 -130 -103 -181 -16 -20 -28 -39 -28 -42 0 -9 -73
-90 -138 -154 -60 -59 -202 -163 -222 -163 -5 0 -15 -6 -22 -13 -28 -27 -195
-89 -323 -121 -335 -82 -850 -44 -1290 96 -33 10 -69 22 -80 27 -11 5 -38 17
-60 26 -124 53 -277 153 -343 225 -60 66 -69 76 -76 88 -11 19 21 2 51 -27 12
-11 24 -17 28 -12 3 5 2 11 -3 13 -8 3 -59 70 -79 103 -11 18 -36 70 -64 130
-17 37 -40 130 -50 205 -15 112 -2 684 17 785 18 90 41 175 61 222 7 17 13 35
13 40 0 11 19 53 61 137 22 43 27 61 18 67 -25 15 -41 -2 -36 -37 5 -31 3 -34
-19 -34 -21 0 -24 4 -24 40 0 56 29 83 82 78 39 -4 41 -2 76 52 49 73 227 250
252 250 5 0 15 6 22 13 18 16 46 34 78 49 14 7 27 15 30 18 13 13 137 67 235
102 126 45 170 58 193 58 12 0 22 4 22 8 0 4 8 9 18 10 9 1 46 6 82 11 l65 10
-79 -4 c-43 -3 -84 -9 -90 -14 -6 -5 -33 -12 -61 -16 -27 -4 -54 -10 -60 -15
-14 -10 -115 -33 -121 -27 -3 2 11 8 31 11 19 4 35 11 35 15 0 5 18 11 40 15
23 3 49 10 58 16 39 21 209 56 366 75 65 8 121 17 124 20 4 3 155 4 337 2 235
-3 357 -9 425 -20z m-3765 -31 c137 -18 233 -39 265 -56 29 -16 55 -40 43 -40
-5 0 -13 4 -18 9 -10 10 -74 25 -180 43 -33 5 -76 14 -95 19 -44 11 -258 30
-455 39 -127 6 -113 6 90 4 142 -1 285 -9 350 -18z m-677 -3 c-10 -2 -28 -2
-40 0 -13 2 -5 4 17 4 22 1 32 -1 23 -4z m-720 -500 c2 -8 -6 -13 -22 -13 -34
0 -35 -32 -2 -65 28 -28 56 -24 56 7 0 11 5 18 12 16 22 -8 20 -27 -5 -52 -31
-31 -59 -25 -91 18 -33 44 -37 61 -19 85 16 24 63 26 71 4z m-91 -85 l23 -22
-26 -27 c-27 -28 -25 -49 3 -49 8 0 17 9 20 20 7 26 33 26 33 1 0 -22 -35 -51
-60 -51 -18 0 -61 43 -79 78 -10 19 -9 28 4 48 19 30 51 31 82 2z m-111 -82
c48 -101 50 -111 31 -119 -13 -5 -177 118 -177 134 0 19 24 7 86 -42 35 -28
64 -48 64 -45 0 4 -16 38 -35 77 -31 61 -37 89 -19 89 3 0 25 -42 50 -94z
m5054 -2324 c109 -7 196 -16 198 -22 2 -6 9 -10 16 -10 22 0 60 -43 84 -95 13
-28 27 -57 31 -65 5 -9 12 -36 15 -60 4 -25 11 -54 16 -65 16 -35 33 -245 33
-415 1 -236 -14 -310 -75 -372 -22 -22 -88 -58 -105 -58 -7 0 -13 -4 -13 -9 0
-6 -21 -13 -47 -17 -27 -4 -50 -10 -53 -14 -16 -24 -499 -50 -575 -31 -22 6
-97 13 -167 17 l-128 6 0 -34 c0 -19 -4 -38 -9 -43 -5 -6 -14 -44 -20 -85 -7
-41 -16 -104 -22 -140 -6 -36 -12 -240 -13 -455 -3 -382 -8 -464 -48 -795 -7
-58 -16 -109 -19 -115 -4 -5 -10 -48 -14 -95 -4 -47 -10 -89 -14 -95 -3 -5
-11 -44 -18 -85 -28 -170 -38 -226 -45 -235 -3 -5 -9 -37 -13 -70 -4 -33 -11
-64 -15 -70 -5 -5 -11 -32 -15 -60 -4 -27 -11 -54 -15 -60 -4 -5 -11 -29 -15
-53 -4 -24 -13 -56 -21 -70 -8 -15 -14 -33 -14 -40 0 -28 -41 -71 -73 -77 -17
-4 -37 -11 -42 -16 -13 -10 -147 -28 -295 -39 -63 -4 -288 -9 -498 -9 l-384
-1 6 52 c3 29 12 130 20 223 24 258 41 418 48 435 4 8 12 69 19 135 14 134 17
1193 4 1524 l-7 193 -207 -7 c-113 -4 -213 -11 -221 -15 -8 -4 -45 -11 -82
-15 -37 -3 -70 -10 -73 -15 -2 -4 -34 -11 -70 -15 -36 -3 -65 -10 -65 -15 0
-4 -27 -11 -60 -15 -33 -4 -60 -11 -60 -15 0 -4 -25 -11 -55 -15 -30 -3 -57
-11 -60 -16 -4 -5 -16 -9 -27 -9 -21 0 -21 1 -16 354 3 233 8 359 15 368 6 7
14 49 18 93 4 44 11 85 15 90 5 6 11 42 15 80 4 39 11 75 15 80 5 6 11 37 15
70 4 33 11 65 15 70 4 6 11 34 15 63 4 28 12 52 18 52 7 0 24 6 38 14 14 7 43
16 65 20 21 5 44 11 49 16 6 4 32 11 59 15 27 3 56 11 65 15 16 9 54 16 256
46 278 41 628 71 1015 84 157 6 326 14 375 19 127 12 1002 7 1235 -7z m1108
-828 c0 -32 -15 -19 -28 25 -9 32 -9 33 9 17 10 -9 19 -28 19 -42z m-168 -220
c0 -8 -4 -12 -10 -9 -17 10 -11 -4 10 -25 11 -11 20 -16 20 -12 0 4 -5 13 -11
19 -7 7 -7 13 -1 17 9 6 62 -51 62 -67 0 -19 -47 3 -77 36 -27 31 -32 41 -22
48 21 13 29 11 29 -7z m-116 -105 c-3 -5 -10 -6 -16 -3 -7 4 -8 2 -4 -4 4 -6
12 -9 19 -6 8 2 33 -19 57 -48 25 -28 38 -48 30 -44 -8 5 -2 -3 15 -17 16 -14
33 -23 37 -21 4 3 23 5 42 6 24 1 33 5 29 15 -3 7 0 13 6 13 6 0 11 -9 11 -20
0 -11 -4 -20 -10 -20 -5 0 -12 0 -15 0 -3 0 -14 -9 -25 -20 -11 -11 -26 -20
-33 -20 -18 0 -57 29 -57 42 0 6 9 3 20 -7 18 -17 20 -17 14 -2 -3 9 -10 17
-15 17 -30 0 -59 17 -59 35 0 8 -4 15 -10 15 -5 0 -10 5 -10 11 0 6 -17 26
-37 46 -35 33 -37 36 -18 43 23 9 38 3 29 -11z m206 12 c0 -4 11 -20 26 -36
14 -15 23 -30 19 -33 -3 -3 -11 3 -19 13 -7 10 -17 15 -23 12 -6 -4 -20 4 -32
17 -21 23 -22 24 -4 29 29 8 33 7 33 -2z m-480 -81 c-8 -15 -6 -17 9 -13 10 3
22 -1 26 -8 5 -8 4 -10 -4 -5 -6 4 -11 4 -10 -1 6 -32 -5 -31 -30 3 -22 28
-27 42 -19 52 16 19 41 -5 28 -28z m500 20 c0 -5 -4 -10 -10 -10 -5 0 -10 5
-10 10 0 6 5 10 10 10 6 0 10 -4 10 -10z m-258 -54 c4 -6 4 -14 2 -18 -3 -4 0
-8 6 -8 20 0 50 -44 37 -52 -14 -9 -33 -11 -25 -2 4 3 -8 19 -24 35 -28 26
-29 34 -5 30 12 -2 8 6 -10 20 -11 10 -14 10 -9 2 4 -8 1 -13 -8 -13 -10 0
-13 6 -9 18 5 13 4 15 -8 6 -8 -6 -27 -11 -44 -12 -16 -1 -34 -7 -40 -14 -7
-8 -6 -9 4 -3 9 5 12 4 7 -3 -4 -6 -12 -9 -20 -6 -24 9 -13 -31 20 -73 36 -44
44 -73 18 -73 -8 0 -12 5 -9 10 7 11 -19 42 -28 34 -3 -3 -3 5 0 18 4 18 3 20
-6 8 -9 -13 -11 -11 -11 7 0 12 -4 25 -10 28 -6 3 -8 -2 -5 -12 3 -10 0 -8 -6
5 -7 12 -15 22 -18 22 -4 0 -7 9 -8 21 -2 16 3 20 17 16 11 -3 27 4 41 19 18
19 25 21 43 12 19 -10 19 -9 8 5 -11 13 -10 16 5 19 18 4 82 -27 95 -46z m305
24 c1 -11 -2 -20 -8 -20 -5 0 -9 5 -9 11 0 5 -5 7 -11 3 -8 -4 -7 -9 2 -15 11
-6 11 -11 1 -21 -12 -12 -13 -12 -16 32 -1 13 15 27 34 29 3 1 6 -8 7 -19z
m-560 -124 c-3 -8 -1 -17 6 -20 7 -3 -1 -3 -18 0 -23 4 -27 3 -15 -5 12 -9 13
-11 1 -11 -41 0 -67 -64 -36 -90 8 -7 12 -16 9 -21 -3 -5 0 -9 6 -9 6 0 14 8
17 17 6 15 7 15 14 -3 7 -18 8 -18 8 2 1 25 10 29 68 33 37 2 43 -1 57 -28 10
-19 12 -32 6 -36 -8 -5 -13 5 -12 25 1 11 -71 10 -85 -1 -30 -26 -144 -16
-128 11 3 5 1 10 -4 10 -20 0 -12 58 9 73 11 8 17 18 12 23 -4 4 2 2 12 -6 18
-14 19 -13 13 2 -4 13 1 22 21 32 35 19 46 20 39 2z m328 0 c12 -12 12 -16 0
-26 -12 -10 -15 -9 -15 4 0 9 -5 16 -11 16 -5 0 -7 5 -4 10 8 13 14 13 30 -4z
m40 -36 c3 -5 4 -14 0 -20 -8 -13 -35 -1 -35 16 0 16 26 19 35 4z m-194 -44
c-9 -11 -8 -14 6 -12 9 0 23 -10 30 -24 7 -14 19 -24 25 -22 7 2 5 -5 -5 -15
-17 -17 -19 -17 -37 7 -10 14 -16 27 -14 30 3 2 10 -2 15 -10 9 -12 10 -12 5
3 -3 10 -6 20 -6 23 0 2 -6 1 -14 -2 -20 -8 -30 14 -15 32 6 8 14 12 17 9 3
-2 0 -11 -7 -19z m-42 -104 c11 11 12 10 5 -2 -5 -8 -9 -21 -10 -28 -1 -7 -13
-21 -26 -31 -18 -15 -27 -17 -43 -8 -16 8 -17 11 -5 15 22 8 39 34 40 62 l1
25 12 -23 c10 -18 15 -20 26 -10z m-84 -99 c-11 -7 -25 -11 -32 -9 -7 3 -13 0
-14 -7 0 -7 -4 -3 -9 8 -13 29 -12 41 2 27 13 -13 29 -16 27 -4 -3 19 3 22 23
11 21 -11 21 -12 3 -26z m-4035 -441 c0 -12 -11 -21 -32 -27 -27 -8 -34 -16
-36 -42 -2 -25 -8 -33 -23 -33 -37 0 -17 88 25 108 35 17 66 14 66 -6z m80
-140 c0 -52 -18 -72 -68 -79 -38 -5 -42 -3 -42 15 0 16 7 21 33 24 29 3 32 6
35 41 3 29 7 37 23 37 15 0 19 -7 19 -38z"/>
<path d="M5830 12790 c-9 -16 -8 -22 4 -26 21 -8 36 3 36 27 0 25 -26 25 -40
-1z"/>
<path d="M5617 12703 c-14 -13 -6 -40 17 -63 44 -40 74 -7 40 45 -16 24 -43
33 -57 18z"/>
<path d="M4974 12123 c10 -11 76 -11 70 -1 -3 4 -21 8 -41 8 -20 0 -33 -3 -29
-7z"/>
<path d="M4923 12103 c9 -2 25 -2 35 0 9 3 1 5 -18 5 -19 0 -27 -2 -17 -5z"/>
<path d="M4868 12093 c6 -2 18 -2 25 0 6 3 1 5 -13 5 -14 0 -19 -2 -12 -5z"/>
<path d="M4828 12073 c7 -3 16 -2 19 1 4 3 -2 6 -13 5 -11 0 -14 -3 -6 -6z"/>
<path d="M5018 11683 c7 -3 16 -2 19 1 4 3 -2 6 -13 5 -11 0 -14 -3 -6 -6z"/>
<path d="M5102 11664 c11 -11 21 -14 26 -9 4 6 6 9 3 8 -2 -1 -13 3 -25 9 -20
10 -20 10 -4 -8z"/>
<path d="M4326 11597 c-15 -31 -14 -32 7 -37 16 -5 22 -13 22 -35 0 -26 -4
-30 -32 -33 -30 -3 -34 -7 -39 -43 -4 -22 -11 -42 -15 -45 -5 -3 -9 -43 -9
-89 l0 -83 63 -7 c34 -3 89 -7 122 -8 l60 -2 12 125 c16 172 16 270 1 274 -7
3 -50 7 -94 10 l-82 5 -16 -32z m101 -214 c-7 -63 -41 -94 -94 -87 -47 6 -57
16 -49 49 6 24 11 27 36 22 30 -6 40 5 40 44 0 15 7 19 36 19 l37 0 -6 -47z"/>
<path d="M4988 10323 c7 -3 16 -2 19 1 4 3 -2 6 -13 5 -11 0 -14 -3 -6 -6z"/>
<path d="M5020 10300 c34 -11 60 -11 35 0 -11 5 -29 8 -40 8 -16 0 -15 -2 5
-8z"/>
<path d="M5198 9833 c7 -3 16 -2 19 1 4 3 -2 6 -13 5 -11 0 -14 -3 -6 -6z"/>
<path d="M8768 9183 c12 -2 32 -2 45 0 12 2 2 4 -23 4 -25 0 -35 -2 -22 -4z"/>
<path d="M8975 8660 c-11 -5 -41 -12 -67 -15 -26 -3 -50 -10 -53 -16 -4 -5
-13 -9 -21 -9 -38 0 -235 -112 -323 -185 -136 -111 -307 -318 -364 -440 -10
-22 -23 -48 -28 -58 -5 -10 -16 -54 -25 -99 -13 -68 -13 -92 -3 -152 12 -68
55 -177 88 -220 33 -44 193 -196 206 -196 7 0 15 -3 17 -7 6 -16 66 -51 178
-106 124 -60 182 -84 245 -97 22 -5 56 -14 75 -20 19 -6 91 -12 160 -15 98 -3
110 -2 55 4 -154 18 -256 49 -415 126 -116 57 -270 152 -270 167 0 4 -4 8 -9
8 -9 0 -141 126 -141 135 0 13 80 -22 100 -44 33 -34 146 -121 158 -121 6 0
12 -4 14 -8 7 -19 154 -94 293 -152 82 -34 275 -70 373 -70 48 0 53 2 47 18
-24 57 -8 75 20 22 20 -38 54 -42 47 -5 -10 54 56 86 93 45 15 -16 16 -22 5
-35 -12 -14 -10 -15 13 -10 17 5 27 3 27 -4 0 -17 19 -13 47 9 l26 20 -31 0
c-49 0 -98 70 -74 106 11 16 45 32 60 27 21 -8 13 -30 -10 -29 -33 1 -35 -34
-4 -63 28 -27 56 -22 56 9 0 12 7 20 16 20 13 0 15 -7 11 -30 -4 -16 -4 -30
-1 -30 4 0 33 28 65 61 57 60 73 89 46 89 -15 0 -61 47 -70 72 -9 26 30 68 63
68 22 0 35 -9 53 -35 21 -31 26 -33 37 -20 14 16 10 23 -39 77 -23 26 -23 28
-5 35 10 4 24 13 30 21 8 11 13 12 18 3 4 -6 3 -17 -2 -24 -11 -13 2 -57 16
-57 20 0 36 37 74 176 18 68 21 105 21 274 0 168 -3 206 -21 275 -51 186 -105
280 -206 356 -70 52 -168 109 -189 109 -8 0 -27 7 -44 15 -48 24 -396 44 -438
25z m202 -96 c29 -6 30 -7 43 -102 28 -197 8 -401 -57 -567 -24 -63 -47 -109
-60 -123 -7 -7 -13 -17 -13 -22 0 -14 -124 -136 -156 -153 -73 -39 -114 -54
-187 -71 -113 -27 -191 -18 -422 49 -5 2 -27 11 -48 20 -22 9 -36 11 -32 6 3
-6 -1 -11 -9 -11 -66 0 -74 209 -14 338 32 67 133 210 179 254 16 15 29 29 29
32 0 6 69 76 74 76 2 0 25 20 51 45 26 24 56 47 66 50 11 4 19 11 19 16 0 5 7
9 15 9 8 0 15 4 15 8 0 12 172 97 235 118 77 24 217 39 272 28z m157 -77 c16
-121 16 -226 3 -317 l-15 -95 5 120 c4 86 1 146 -11 213 -20 115 -21 143 -2
136 8 -3 16 -27 20 -57z m200 -1146 c3 -5 15 -7 27 -4 17 5 19 2 14 -18 -7
-29 35 -75 59 -66 24 9 29 -11 6 -23 -22 -12 -47 -3 -70 25 -8 10 -24 21 -37
26 -14 5 -21 14 -17 23 3 8 0 17 -5 21 -12 7 -5 25 9 25 5 0 11 -4 14 -9z"/>
<path d="M9015 8454 c-33 -8 -67 -18 -76 -23 -9 -5 -33 -13 -53 -16 -20 -4
-36 -11 -36 -15 0 -4 -12 -11 -27 -15 -15 -3 -30 -10 -33 -14 -3 -4 -23 -18
-45 -31 -22 -13 -45 -29 -52 -35 -6 -5 -26 -21 -44 -35 -56 -42 -193 -182
-237 -242 -77 -105 -102 -161 -102 -231 0 -34 3 -72 6 -83 6 -24 61 -49 132
-60 23 -4 45 -11 48 -15 3 -5 23 -9 44 -9 37 0 39 2 45 38 8 48 24 91 44 118
9 12 23 32 31 44 8 12 20 28 25 34 6 6 28 34 49 61 88 112 293 287 365 310 20
6 21 13 21 109 0 99 -8 128 -34 125 -6 -1 -38 -7 -71 -15z"/>
<path d="M9636 7383 c-5 -11 3 -27 22 -45 32 -33 62 -29 62 7 0 44 -70 76 -84
38z"/>
<path d="M9363 7125 c-3 -9 -3 -19 1 -22 7 -7 36 16 36 28 0 15 -30 10 -37 -6z"/>
<path d="M9404 7075 c-19 -14 -19 -14 2 -15 12 0 27 7 34 15 17 20 -9 21 -36
0z"/>
<path d="M9330 7045 c0 -17 2 -18 24 -9 23 9 20 24 -4 24 -11 0 -20 -7 -20
-15z"/>
<path d="M4437 8585 c-4 -8 -2 -17 4 -21 12 -7 41 15 33 27 -8 14 -31 11 -37
-6z"/>
<path d="M7594 2482 c7 -11 -3 -13 -48 -10 -54 3 -56 2 -55 -22 0 -14 3 -19 6
-12 3 7 24 12 53 12 27 0 50 3 53 8 2 4 2 2 1 -5 -2 -7 1 -15 6 -18 17 -11 11
32 -7 46 -14 12 -15 12 -9 1z"/>
<path d="M7813 2473 c-44 -6 -42 -23 2 -23 24 0 35 5 35 15 0 8 -1 14 -2 13
-2 0 -18 -3 -35 -5z"/>
<path d="M7472 2450 c0 -14 2 -19 5 -12 2 6 2 18 0 25 -3 6 -5 1 -5 -13z"/>
<path d="M7727 2426 c-14 -11 -15 -15 -5 -20 7 -3 2 -3 -12 0 -14 2 -73 6
-132 7 l-108 3 0 -33 0 -33 188 2 187 3 3 34 c2 18 -1 31 -6 27 -5 -3 -24 -1
-42 4 -23 7 -38 6 -47 -2 -11 -8 -12 -7 -7 6 7 19 5 20 -19 2z"/>
<path d="M10410 5108 c0 -9 7 -19 16 -22 15 -6 15 -4 3 11 -7 10 -15 20 -16
22 -2 2 -3 -3 -3 -11z"/>
<path d="M10266 5022 c-4 -7 -1 -12 6 -12 7 0 21 -14 31 -31 10 -18 20 -29 23
-26 3 3 1 12 -5 19 -6 7 -19 24 -29 37 -13 16 -21 20 -26 13z"/>
<path d="M10406 4892 c-2 -4 4 -8 14 -8 10 0 16 4 14 8 -3 4 -9 8 -14 8 -5 0
-11 -4 -14 -8z"/>
<path d="M10445 5040 c3 -5 11 -10 16 -10 6 0 7 5 4 10 -3 6 -11 10 -16 10 -6
0 -7 -4 -4 -10z"/>
<path d="M9966 5002 c-3 -5 1 -9 9 -9 8 0 12 4 9 9 -3 4 -7 8 -9 8 -2 0 -6 -4
-9 -8z"/>
<path d="M10040 4921 c0 -5 5 -13 10 -16 6 -3 10 -2 10 4 0 5 -4 13 -10 16 -5
3 -10 2 -10 -4z"/>
<path d="M9870 4769 c0 -5 5 -7 10 -4 6 3 10 8 10 11 0 2 -4 4 -10 4 -5 0 -10
-5 -10 -11z"/>
<path d="M9880 4742 c0 -6 5 -14 10 -17 6 -4 7 -11 4 -17 -4 -7 -2 -8 5 -4 9
6 9 12 -1 24 -7 10 -14 19 -15 21 -2 2 -3 -1 -3 -7z"/>
<path d="M9993 4715 c0 -8 4 -12 9 -9 5 3 6 10 3 15 -9 13 -12 11 -12 -6z"/>
<path d="M10063 4623 c-3 -8 -3 -17 1 -20 3 -4 6 1 6 11 0 9 4 15 9 11 5 -3
12 -2 15 3 3 5 -2 9 -10 9 -9 0 -18 -7 -21 -14z"/>
<path d="M7092 15308 c-7 -7 -12 -17 -12 -23 0 -18 -42 -62 -67 -69 -11 -4
-24 -13 -27 -21 -4 -10 0 -12 12 -6 9 4 32 14 50 22 17 7 32 17 32 21 0 4 16
10 35 14 19 3 35 10 35 14 0 5 18 11 40 15 22 4 42 11 46 16 3 5 16 9 30 9 13
0 24 5 24 10 0 15 -183 13 -198 -2z"/>
<path d="M5190 15280 c0 -5 5 -10 10 -10 6 0 10 5 10 10 0 6 -4 10 -10 10 -5
0 -10 -4 -10 -10z"/>
<path d="M5395 15269 c4 -13 11 -26 16 -29 4 -3 11 -18 15 -34 4 -17 13 -41
20 -55 8 -14 14 -33 14 -41 1 -22 26 39 34 84 4 21 13 47 19 57 16 26 5 32
-64 37 -61 5 -61 4 -54 -19z"/>
<path d="M7410 15221 c-56 -8 -134 -29 -205 -55 -42 -15 -206 -96 -215 -106
-3 -3 -23 -18 -46 -33 -89 -60 -127 -109 -209 -271 -39 -78 -74 -151 -78 -162
-3 -10 -15 -44 -26 -74 -21 -54 -43 -145 -76 -305 -9 -44 -22 -107 -30 -140
-13 -56 -27 -117 -60 -270 -8 -33 -21 -107 -30 -165 -9 -58 -23 -139 -30 -180
-21 -107 -19 -130 15 -170 17 -19 30 -42 30 -51 0 -18 -28 -46 -63 -63 -21
-11 -22 -19 -25 -126 -2 -75 3 -142 13 -191 8 -42 15 -83 15 -92 0 -24 59
-146 81 -168 70 -70 231 -169 339 -208 96 -35 322 -38 425 -6 28 9 73 23 100
31 48 15 72 24 168 60 101 39 173 83 233 140 35 34 64 66 64 71 0 6 6 13 13
16 16 6 137 246 137 270 0 9 6 31 14 49 25 58 75 241 152 551 8 31 21 84 29
117 8 33 21 86 29 118 8 31 22 95 31 142 9 47 23 112 30 145 38 170 44 287 21
395 -57 264 -147 469 -251 574 -77 78 -104 95 -225 137 -61 22 -275 33 -370
20z m-16 -993 c20 -28 20 -74 1 -218 -30 -221 -57 -366 -90 -485 -8 -27 -17
-80 -20 -118 -9 -109 -33 -151 -67 -120 -16 14 -18 36 -18 184 0 92 7 221 15
286 45 359 66 467 94 483 29 17 69 11 85 -12z m195 -70 c-4 -46 -12 -112 -19
-148 -31 -172 -42 -229 -56 -282 -8 -32 -14 -66 -14 -77 0 -10 -7 -22 -16 -25
-13 -5 -14 1 -9 42 14 110 53 339 70 417 8 33 17 78 20 100 7 43 12 55 23 55
4 0 5 -37 1 -82z m-1119 -783 c-11 -14 -8 -23 18 -61 36 -51 37 -54 17 -54 -8
0 -32 23 -54 52 -38 50 -44 75 -16 64 7 -2 15 5 19 17 4 17 8 19 17 10 9 -9 9
-16 -1 -28z"/>
<path d="M8101 15127 c8 -7 26 -28 39 -47 13 -19 27 -37 30 -40 6 -6 47 -89
54 -110 2 -8 5 8 5 37 1 28 6 55 11 58 18 11 11 35 -11 35 -11 0 -34 15 -52
34 -18 18 -45 36 -62 39 -24 4 -27 3 -14 -6z"/>
<path d="M9210 15043 c-36 -2 -124 -10 -197 -18 -159 -18 -325 -19 -453 -3
-111 13 -138 9 -178 -32 -27 -27 -31 -38 -37 -112 -4 -46 -5 -407 -3 -803 4
-606 7 -738 21 -831 9 -61 21 -124 27 -138 5 -15 10 -36 10 -48 0 -29 47 -134
94 -208 27 -43 132 -150 147 -150 4 0 14 -6 21 -13 45 -43 261 -107 362 -107
28 0 106 -7 171 -16 172 -24 493 -24 600 0 44 10 98 24 120 32 23 8 47 14 54
14 19 0 242 111 261 130 3 3 23 18 45 35 50 37 151 137 191 190 39 50 81 141
101 214 41 152 44 182 55 521 13 389 14 521 3 973 -9 370 -7 363 -95 360 -28
0 -79 -6 -113 -12 -193 -33 -379 -39 -522 -16 -224 36 -237 37 -251 23 -10
-10 -13 -170 -17 -738 -6 -823 -6 -833 -67 -837 -63 -5 -94 39 -120 171 -34
175 -44 323 -36 574 22 703 22 706 40 754 25 67 13 83 -65 92 -34 3 -71 5 -83
4 -12 -1 -50 -3 -86 -5z m-689 -495 c9 -142 4 -227 -14 -209 -12 12 -27 249
-20 314 10 83 25 36 34 -105z"/>
<path d="M10766 14971 l-28 -6 0 -307 c1 -169 4 -323 7 -341 8 -41 -11 -677
-26 -877 -22 -287 -96 -476 -251 -632 -61 -63 -189 -168 -203 -168 -3 0 -21
-11 -38 -24 -38 -28 -178 -96 -199 -96 -7 0 -18 -4 -23 -9 -11 -10 -84 -28
-170 -43 -33 -5 -75 -14 -94 -20 -45 -14 -280 -13 -411 1 -58 6 -177 18 -265
26 -150 15 -220 26 -259 41 -14 5 -16 -8 -16 -120 l0 -126 48 0 c26 0 53 -4
61 -9 8 -5 28 -3 50 4 20 7 63 21 96 30 33 10 78 24 100 32 29 11 58 13 110 7
38 -4 90 -8 115 -10 25 -2 82 -6 128 -10 61 -5 82 -3 82 5 0 19 27 42 62 52
38 11 306 12 598 2 l205 -6 28 -30 c16 -17 27 -40 27 -57 0 -21 7 -30 29 -40
69 -28 76 -60 91 -395 5 -126 15 -286 20 -355 6 -69 11 -164 11 -211 0 -79 2
-88 28 -120 28 -33 30 -33 62 -22 26 10 35 10 41 0 14 -21 -39 -59 -78 -55
-18 1 -35 0 -38 -3 -6 -5 8 -257 25 -444 6 -66 14 -214 19 -330 5 -115 14
-317 21 -449 l11 -239 -30 -28 c-39 -37 -61 -41 -157 -29 -44 5 -154 14 -245
20 -91 6 -187 14 -215 20 -70 13 -348 28 -358 20 -5 -4 3 -10 17 -14 14 -3 26
-11 26 -16 0 -6 6 -10 13 -10 14 0 44 -21 87 -61 16 -15 33 -28 38 -30 11 -5
73 -55 111 -89 15 -14 58 -50 96 -80 39 -30 80 -65 92 -77 12 -13 26 -23 30
-23 5 0 16 -8 24 -17 9 -10 31 -29 49 -43 99 -76 197 -170 240 -228 14 -19 30
-39 36 -45 5 -7 21 -34 35 -62 13 -27 27 -52 30 -55 3 -3 16 -39 28 -80 13
-41 27 -85 32 -97 14 -37 34 -232 34 -333 -1 -116 -22 -384 -35 -425 -5 -16
-14 -64 -20 -105 -23 -149 -31 -195 -39 -215 -9 -21 -25 -82 -43 -155 -5 -25
-14 -49 -19 -54 -5 -6 -9 -18 -9 -29 0 -10 -9 -39 -21 -65 -21 -49 -33 -76
-53 -127 -39 -94 -137 -280 -156 -295 -3 -3 -21 -26 -38 -52 -18 -25 -47 -62
-64 -81 -18 -19 -43 -46 -54 -58 -55 -60 -185 -169 -203 -169 -5 0 -11 -4 -13
-8 -3 -8 -98 -65 -150 -92 -30 -14 -37 -30 -14 -30 8 0 16 -3 18 -7 2 -5 23
-18 48 -31 25 -12 52 -27 60 -32 8 -5 39 -24 69 -40 l54 -31 56 29 c128 67
129 68 170 102 13 11 28 20 33 20 10 0 258 244 258 254 0 7 40 66 51 76 3 3 9
12 12 20 4 8 16 29 26 45 38 59 129 254 171 365 11 30 25 64 29 75 9 20 17 47
47 170 32 131 45 194 60 295 36 240 57 499 48 580 -4 36 -8 76 -9 90 -3 44
-15 114 -27 158 -10 40 -13 43 -39 37 -29 -7 -29 -6 -29 42 0 27 5 54 12 61 9
9 7 20 -8 49 -61 117 -166 237 -300 343 -38 30 -79 65 -91 77 -12 13 -25 23
-28 23 -3 0 -13 8 -24 18 -10 9 -33 28 -51 42 -18 14 -48 39 -66 56 -18 18
-37 33 -42 35 -10 4 -87 67 -141 116 -20 18 -39 33 -42 33 -3 0 -17 9 -30 20
-39 32 -42 34 -91 58 -79 38 -72 45 38 38 54 -4 126 -11 159 -16 93 -15 494
-46 678 -52 64 -2 69 -1 93 27 23 26 25 37 23 102 -1 40 0 76 4 79 5 6 17 2
192 -61 55 -20 115 -40 134 -45 18 -5 38 -13 44 -19 6 -6 20 -11 30 -11 10 0
33 -6 50 -14 18 -8 41 -16 52 -19 11 -3 58 -20 105 -37 47 -17 126 -44 175
-61 50 -16 99 -33 110 -38 11 -5 29 -12 40 -15 25 -6 104 -34 130 -45 11 -5
29 -12 40 -15 57 -15 190 -65 192 -72 2 -10 -552 -427 -574 -432 -7 -2 -13 -7
-13 -12 0 -4 -20 -21 -45 -37 -25 -15 -45 -31 -45 -35 0 -5 -7 -8 -15 -8 -8 0
-15 -3 -15 -7 0 -5 -20 -21 -45 -38 -24 -16 -45 -33 -45 -37 0 -5 -7 -8 -15
-8 -8 0 -15 -4 -15 -8 0 -4 -20 -21 -45 -36 -25 -16 -45 -33 -45 -37 0 -5 -6
-9 -14 -9 -8 0 -16 -3 -18 -7 -1 -5 -19 -19 -39 -33 -20 -14 -49 -35 -65 -48
-16 -12 -69 -51 -117 -87 -57 -43 -85 -70 -80 -78 4 -7 22 -25 41 -42 19 -16
46 -41 61 -55 14 -14 71 -65 126 -114 55 -49 110 -100 122 -113 12 -13 24 -23
27 -23 3 0 20 -15 39 -32 18 -18 75 -71 126 -117 l93 -85 -34 -12 c-19 -6 -54
-15 -78 -18 -25 -4 -76 -14 -115 -22 -38 -8 -101 -21 -140 -29 -166 -34 -233
-50 -226 -55 4 -3 25 -27 46 -54 22 -28 53 -64 68 -80 15 -17 45 -52 65 -78
20 -27 40 -48 44 -48 4 0 8 -7 8 -15 0 -8 3 -15 8 -15 4 0 30 -28 57 -62 28
-34 59 -72 70 -84 11 -12 38 -43 60 -70 80 -97 118 -139 126 -142 5 -2 9 -10
9 -18 0 -8 3 -14 8 -14 4 0 34 -34 67 -75 33 -41 63 -75 68 -75 4 0 7 -7 7
-15 0 -8 3 -15 8 -15 4 0 30 -28 57 -62 28 -35 65 -78 83 -96 17 -18 32 -35
32 -37 0 -3 8 -13 18 -23 9 -10 42 -49 72 -86 30 -37 70 -84 88 -104 18 -21
49 -58 69 -84 21 -27 41 -48 45 -48 4 0 8 -5 8 -10 0 -6 10 -21 23 -33 12 -12
43 -47 67 -77 56 -69 77 -93 118 -138 18 -21 49 -58 69 -84 21 -27 41 -48 45
-48 4 0 8 -5 8 -11 0 -6 8 -18 17 -27 16 -16 11 -17 -68 -19 -46 -1 -163 -7
-259 -13 -96 -6 -294 -15 -440 -20 -294 -10 -430 -20 -430 -29 0 -6 113 -164
146 -204 7 -9 14 -20 14 -23 0 -2 5 -10 10 -17 6 -7 33 -43 61 -82 27 -38 56
-78 64 -88 8 -9 15 -20 15 -23 0 -2 5 -10 10 -17 6 -7 33 -43 61 -82 27 -38
56 -78 64 -88 8 -9 15 -20 15 -23 0 -2 5 -10 10 -17 6 -7 33 -43 61 -82 27
-38 56 -78 64 -88 8 -9 15 -20 15 -23 0 -2 5 -10 10 -17 6 -7 35 -46 65 -87
30 -41 59 -80 65 -87 5 -7 10 -15 10 -18 0 -3 9 -15 20 -27 24 -26 17 -40 -13
-29 -22 8 -88 28 -197 57 -54 15 -122 34 -210 59 -25 7 -70 20 -100 29 -30 8
-77 22 -105 29 -27 8 -79 22 -115 32 -36 9 -83 23 -105 30 -22 7 -69 20 -105
30 -61 16 -92 25 -200 58 l-45 14 0 94 c-1 137 -24 398 -40 444 -8 22 -14 33
-15 24 0 -25 -36 -65 -73 -82 -44 -21 -88 -9 -134 35 l-33 32 0 -35 c0 -64 9
-81 40 -74 18 4 31 1 40 -10 11 -13 9 -19 -10 -40 -13 -14 -29 -25 -35 -25 -9
0 -14 -41 -18 -137 -10 -219 -21 -291 -56 -356 -37 -68 -112 -142 -178 -177
-26 -14 -50 -28 -53 -31 -3 -3 -39 -16 -80 -28 -41 -12 -89 -27 -106 -32 -82
-24 -449 -38 -634 -23 l-85 6 -12 -28 c-15 -38 -37 -383 -30 -476 8 -97 -10
-504 -28 -648 -7 -63 -16 -142 -20 -175 -3 -33 -10 -85 -15 -115 -24 -140 -40
-251 -46 -315 -3 -38 -9 -74 -13 -80 -3 -5 -11 -41 -18 -80 -27 -158 -35 -200
-43 -210 -4 -5 -11 -36 -15 -68 -4 -31 -11 -60 -16 -63 -5 -3 -9 -13 -9 -23 0
-22 -37 -144 -56 -188 -8 -17 -14 -36 -14 -42 0 -6 -4 -11 -10 -11 -5 0 -10
-6 -10 -12 -1 -24 -93 -108 -118 -108 -6 0 -23 -7 -38 -15 -16 -8 -41 -15 -56
-15 -14 0 -28 -4 -30 -9 -3 -9 -104 -22 -323 -41 -55 -5 -291 -9 -525 -10
-234 -1 -418 -4 -410 -7 8 -3 17 -9 20 -12 5 -5 49 -31 124 -70 43 -23 61 -41
86 -86 12 -22 30 -53 41 -70 10 -16 23 -40 28 -52 14 -30 28 -36 35 -15 7 18
12 28 59 99 15 24 27 47 27 53 0 7 105 10 308 10 169 0 350 4 402 10 52 6 147
15 210 20 121 9 225 25 250 39 9 5 31 12 49 16 19 4 41 12 48 19 18 14 85 81
99 98 14 18 71 183 80 233 3 22 9 45 13 50 3 6 12 37 19 70 7 33 19 92 27 130
9 39 21 103 28 144 6 41 17 76 24 78 6 2 22 -8 36 -22 l24 -26 16 25 c10 14
17 30 17 35 0 6 7 27 16 48 33 78 42 99 59 143 9 25 23 59 30 75 7 17 20 50
30 75 9 25 23 59 30 75 7 17 20 50 30 75 10 25 23 59 30 75 7 17 21 50 31 75
9 25 26 65 36 90 27 61 33 76 59 145 13 33 29 68 35 78 10 16 13 16 27 2 9 -8
18 -15 22 -15 8 0 69 -43 73 -52 2 -5 8 -8 13 -8 9 0 68 -38 79 -51 3 -3 12
-9 20 -13 26 -12 47 -26 322 -209 147 -97 271 -177 277 -177 5 0 11 -3 13 -7
4 -10 65 -53 74 -53 3 0 23 -13 44 -30 21 -16 41 -30 44 -30 9 0 70 -43 74
-52 2 -5 8 -8 13 -8 11 0 72 -42 77 -52 2 -5 8 -8 13 -8 9 0 68 -38 79 -51 3
-3 12 -9 20 -13 26 -12 47 -26 322 -209 147 -97 271 -177 277 -177 5 0 11 -3
13 -7 5 -12 66 -53 78 -53 5 0 10 -4 10 -8 0 -9 50 -35 56 -30 2 3 -13 80 -42
208 -8 36 -14 74 -14 85 0 11 -7 49 -15 85 -14 62 -23 109 -59 295 -8 44 -22
118 -31 165 -29 147 -44 222 -60 310 -9 47 -22 117 -30 155 -8 39 -21 106 -30
150 -8 44 -22 112 -30 150 -7 39 -17 92 -20 119 -6 45 -5 48 12 41 10 -4 36
-11 59 -16 22 -4 51 -12 65 -17 13 -5 49 -16 79 -25 55 -15 132 -36 225 -62
54 -15 132 -37 210 -60 129 -37 212 -60 320 -90 51 -13 87 -24 215 -60 25 -7
70 -20 100 -29 30 -8 78 -22 105 -29 28 -8 79 -22 115 -32 36 -9 83 -23 105
-30 22 -7 69 -20 105 -30 36 -9 85 -23 110 -30 25 -8 70 -21 100 -29 30 -9 84
-25 120 -35 36 -10 66 -15 68 -11 3 9 -46 83 -99 151 -16 20 -29 42 -29 48 0
6 -4 11 -9 11 -5 0 -20 17 -32 38 -13 20 -42 63 -66 94 -24 31 -43 61 -43 67
0 6 -4 11 -9 11 -5 0 -20 17 -32 38 -13 20 -42 63 -66 94 -24 31 -43 61 -43
67 0 6 -4 11 -9 11 -5 0 -20 17 -32 38 -26 41 -159 227 -184 254 -8 10 -15 20
-15 23 0 3 -5 11 -10 18 -6 7 -33 44 -61 82 -27 39 -56 78 -64 88 -8 9 -15 20
-15 23 0 2 -5 10 -10 17 -6 7 -33 44 -61 82 -27 39 -56 78 -64 88 -8 9 -15 20
-15 23 0 2 -5 10 -10 17 -6 7 -33 44 -61 82 -27 39 -56 78 -64 88 -8 9 -15 20
-15 23 0 2 -5 10 -10 17 -25 29 -80 106 -80 111 0 3 28 6 63 6 34 0 121 4 192
10 72 5 254 14 405 19 447 16 680 32 672 47 -7 13 -86 106 -113 133 -8 9 -30
36 -49 61 -19 25 -45 56 -57 70 -72 80 -98 110 -130 153 -21 26 -41 47 -45 47
-4 0 -8 5 -8 10 0 6 -10 21 -23 33 -12 12 -43 47 -67 77 -52 64 -77 93 -105
125 -11 12 -42 50 -70 83 -27 34 -53 62 -57 62 -5 0 -8 7 -8 15 0 8 -3 15 -8
15 -4 0 -34 34 -67 75 -33 41 -63 75 -67 75 -5 0 -8 5 -8 10 0 6 -10 21 -23
33 -12 12 -43 47 -67 77 -54 65 -78 94 -105 124 -11 13 -38 45 -60 71 -22 27
-48 57 -57 67 -10 10 -18 23 -18 28 0 6 -3 10 -7 10 -5 0 -30 28 -58 62 -27
34 -59 72 -70 84 -11 12 -38 43 -60 70 -40 48 -93 111 -144 170 -14 17 -44 53
-66 80 -22 26 -48 56 -57 66 -10 10 -18 22 -18 27 0 12 124 45 235 62 33 5 92
16 130 24 187 38 234 48 287 61 32 8 74 14 93 14 45 0 44 14 -1 53 -20 18 -48
43 -63 57 -14 14 -71 66 -126 115 -112 100 -164 148 -203 186 -15 14 -70 63
-122 110 -91 81 -138 123 -219 199 -36 34 -152 139 -218 196 -18 16 -33 36
-33 45 0 10 20 30 45 46 25 15 45 31 45 36 0 4 7 7 15 7 8 0 15 4 15 9 0 5 20
22 45 38 25 15 45 31 45 36 0 4 7 7 15 7 8 0 15 4 15 10 0 5 20 21 45 36 25
14 45 30 45 35 0 5 6 9 14 9 8 0 16 4 18 8 2 5 28 26 58 47 30 21 59 42 65 47
5 4 33 25 60 45 28 21 55 41 60 45 59 48 428 318 435 318 4 0 10 4 12 9 4 12
96 81 107 81 5 0 11 4 13 9 4 12 96 81 108 81 6 0 10 4 10 10 0 5 20 21 45 36
25 14 45 30 45 35 0 5 6 9 14 9 8 0 16 4 18 8 2 5 28 26 58 47 30 21 59 42 65
47 5 5 29 23 53 40 24 17 41 32 39 34 -5 5 -129 51 -217 80 -41 13 -84 28 -95
33 -11 5 -29 12 -40 15 -25 6 -104 34 -130 45 -11 5 -29 12 -40 14 -11 3 -65
22 -120 42 -55 19 -134 47 -175 60 -41 14 -84 29 -95 34 -56 24 -83 34 -110
42 -16 4 -75 24 -130 44 -55 20 -136 47 -180 62 -44 14 -84 30 -89 34 -6 5
-19 9 -30 9 -12 0 -34 7 -50 15 -15 8 -36 15 -45 15 -10 0 -26 7 -37 15 -10 8
-27 15 -36 15 -9 0 -29 5 -45 12 -45 18 -181 66 -268 95 -44 14 -84 30 -89 34
-6 5 -19 9 -29 9 -10 0 -35 7 -55 16 -21 9 -52 22 -70 30 -18 8 -41 14 -52 14
-25 0 -30 18 -14 60 7 19 27 82 44 140 18 58 38 125 46 150 8 25 28 90 45 145
17 55 36 118 44 140 7 22 17 56 20 75 4 19 10 40 14 45 3 6 11 28 17 50 6 22
14 47 18 55 8 19 -3 24 -254 100 -58 17 -121 37 -140 45 -19 7 -62 20 -95 30
-33 9 -76 23 -95 30 -19 7 -81 27 -138 46 -87 27 -105 30 -113 18 -5 -8 -9
-19 -9 -25 0 -16 -73 -80 -100 -89 -37 -12 -63 2 -112 61 -52 61 -59 93 -34
142 38 74 114 102 168 62 l31 -23 -8 49 c-4 27 -12 155 -19 284 -10 200 -14
240 -31 270 -21 38 -21 42 -13 80 3 14 13 59 22 100 9 41 21 98 27 125 5 28
14 73 19 101 4 29 11 63 16 75 7 24 27 119 44 219 5 30 14 71 19 90 5 19 16
70 25 113 20 100 43 209 56 272 6 28 18 84 26 125 8 41 22 107 30 145 25 119
31 155 27 158 -2 2 -27 -3 -56 -10 -106 -30 -94 -73 -89 321 l5 346 -27 0
c-24 0 -27 4 -24 28 2 19 8 27 21 26 15 -2 17 8 17 67 l0 69 -29 0 c-27 0 -30
-3 -33 -37 -3 -33 -6 -38 -28 -38 -23 0 -25 4 -24 44 0 35 6 49 28 67 15 14
40 24 57 24 l29 0 0 155 c0 85 -4 155 -9 155 -5 0 -12 11 -15 25 -9 37 -36 59
-94 78 -52 18 -77 19 -126 8z m244 -10465 c0 -19 6 -61 14 -93 7 -32 21 -101
31 -153 9 -52 23 -124 30 -160 8 -36 21 -103 30 -150 9 -47 21 -107 26 -135 6
-27 15 -75 19 -105 5 -30 14 -72 19 -93 l9 -37 -37 22 c-42 26 -174 112 -213
139 -15 11 -32 19 -38 19 -5 0 -10 4 -10 8 0 5 -10 14 -22 21 -13 6 -36 20
-53 31 -16 11 -40 25 -52 31 -13 7 -23 16 -23 21 0 4 -5 8 -10 8 -12 0 -73 41
-78 53 -2 4 -8 7 -13 7 -11 0 -72 42 -77 53 -2 4 -8 7 -13 7 -9 0 -68 38 -79
51 -3 3 -10 8 -16 10 -24 8 -243 154 -248 165 -3 7 37 11 122 13 69 1 132 6
141 10 9 5 45 12 81 16 36 4 70 11 75 15 6 4 26 11 45 15 19 4 40 11 45 15 6
4 26 13 45 19 70 23 220 158 220 199 0 6 7 12 15 12 10 0 15 -10 15 -34z"/>
<path d="M4390 14658 c0 -11 12 -10 30 2 12 7 10 9 -8 7 -12 0 -22 -5 -22 -9z"/>
<path d="M4452 14548 c-10 -13 -15 -34 -13 -54 2 -19 69 -85 76 -74 3 5 1 10
-4 10 -6 0 -11 4 -11 10 0 5 6 7 14 4 8 -3 17 0 22 7 5 8 3 10 -7 4 -8 -5 -4
3 9 17 14 16 22 35 20 50 -2 19 -9 23 -40 23 -21 0 -38 -3 -38 -7 0 -4 -8 -8
-17 -8 -15 0 -16 2 -3 10 8 5 12 12 9 15 -4 3 -11 0 -17 -7z"/>
<path d="M4520 13860 c-1 -140 -1 -344 0 -452 l2 -198 -48 0 c-44 0 -117 9
-309 40 -38 6 -101 15 -140 19 -121 14 -258 31 -320 42 -33 6 -103 14 -155 19
-92 8 -208 22 -317 39 -61 9 -63 6 -32 -65 11 -27 24 -58 28 -69 4 -11 19 -45
33 -75 15 -30 36 -80 48 -110 12 -30 26 -64 30 -75 5 -11 19 -45 30 -75 24
-60 28 -70 59 -144 12 -27 21 -56 21 -65 0 -9 4 -21 9 -26 5 -6 19 -35 31 -65
12 -30 28 -68 35 -85 38 -87 45 -104 45 -120 0 -9 5 -25 10 -36 12 -22 -2 -25
-46 -9 -14 6 -70 17 -123 25 -89 13 -140 23 -326 60 -38 8 -99 20 -135 26 -36
6 -69 15 -74 20 -6 5 -25 9 -44 9 -19 0 -64 7 -101 15 -36 8 -102 21 -146 30
-44 9 -109 22 -145 30 -36 7 -103 20 -150 30 -130 26 -228 45 -310 62 -41 8
-109 21 -150 30 -41 8 -109 21 -150 30 -41 8 -109 21 -150 29 -41 9 -104 21
-140 29 -36 7 -103 20 -150 30 -134 26 -220 44 -290 59 -36 8 -66 13 -68 12
-2 -3 73 -102 88 -116 21 -20 80 -100 80 -109 0 -6 4 -11 8 -11 5 0 28 -27 52
-60 24 -33 47 -60 52 -60 4 0 8 -6 8 -14 0 -8 4 -16 9 -18 5 -1 32 -34 62 -73
29 -38 55 -72 59 -75 3 -3 30 -36 60 -75 30 -38 57 -72 60 -75 3 -3 18 -24 34
-47 16 -24 33 -43 37 -43 5 0 9 -6 9 -14 0 -8 4 -16 9 -18 5 -1 32 -34 62 -73
29 -38 55 -72 58 -75 19 -17 81 -100 81 -109 0 -6 4 -11 8 -11 5 0 28 -27 52
-60 24 -33 47 -60 52 -60 4 0 8 -6 8 -14 0 -8 4 -16 9 -18 5 -2 32 -34 62 -73
29 -38 56 -72 59 -75 4 -3 23 -29 44 -58 20 -29 44 -60 54 -70 10 -10 33 -39
51 -65 19 -26 38 -47 43 -47 4 0 8 -6 8 -14 0 -8 4 -16 9 -18 5 -2 32 -34 62
-73 29 -38 56 -72 59 -75 4 -3 46 -57 94 -120 49 -63 92 -116 97 -118 5 -2 9
-10 9 -17 0 -7 4 -15 9 -17 5 -1 41 -46 80 -98 39 -52 75 -100 81 -107 7 -8 6
-14 -1 -19 -12 -7 -106 -29 -188 -45 -29 -5 -62 -14 -72 -19 -10 -6 -26 -10
-37 -10 -11 0 -44 -7 -73 -16 -164 -48 -357 -95 -446 -109 -24 -4 -45 -11 -48
-16 -6 -9 126 -145 663 -684 166 -167 302 -309 302 -317 -1 -7 -28 -33 -60
-57 -33 -25 -60 -49 -60 -53 0 -4 -7 -8 -15 -8 -8 0 -15 -3 -15 -7 0 -5 -39
-39 -88 -78 -48 -38 -89 -72 -92 -75 -3 -3 -21 -16 -40 -29 -19 -14 -46 -35
-60 -47 -31 -27 -124 -108 -174 -151 -21 -18 -42 -33 -47 -33 -5 0 -9 -4 -9
-8 0 -4 -13 -15 -29 -25 -32 -18 -86 -63 -139 -114 -50 -48 -108 -93 -121 -93
-6 0 -11 -4 -11 -8 0 -4 -23 -26 -52 -47 -29 -22 -65 -52 -80 -67 -16 -16 -31
-28 -34 -28 -3 0 -17 -13 -32 -28 -15 -15 -49 -46 -77 -67 -27 -22 -55 -44
-61 -50 -6 -5 -27 -23 -47 -39 -20 -16 -37 -33 -37 -37 0 -4 13 -10 30 -14 16
-4 30 -11 30 -16 0 -5 12 -12 27 -15 16 -4 44 -17 63 -29 19 -12 71 -41 115
-65 193 -103 222 -119 265 -143 25 -14 70 -38 100 -54 30 -15 57 -30 60 -33 3
-3 25 -15 50 -28 25 -12 74 -38 110 -58 36 -20 88 -48 115 -62 28 -14 52 -28
55 -31 3 -4 39 -23 80 -44 41 -21 91 -47 110 -59 19 -11 58 -32 85 -46 28 -14
52 -28 55 -31 3 -4 39 -23 80 -44 195 -98 222 -116 199 -140 -8 -8 -45 -49
-84 -92 -38 -42 -96 -105 -129 -138 -51 -54 -59 -68 -62 -107 -3 -50 -22 -70
-65 -70 -26 0 -43 -14 -99 -79 l-21 -25 48 -13 c26 -8 65 -18 86 -23 21 -6 45
-14 55 -19 18 -9 358 -120 452 -148 30 -9 69 -22 87 -30 17 -7 36 -13 43 -13
14 0 98 -27 145 -46 17 -6 47 -15 68 -18 20 -4 37 -10 37 -13 0 -9 -252 -517
-259 -523 -3 -3 -69 -131 -146 -285 -77 -154 -144 -283 -149 -286 -21 -16 31
-18 340 -18 181 1 355 0 387 -1 95 -2 121 17 76 58 -15 14 -18 26 -13 46 8 35
16 33 52 -11 l30 -38 26 24 c25 23 28 24 43 8 16 -15 15 -18 -6 -41 -13 -14
-20 -29 -16 -35 7 -13 135 -15 135 -3 0 5 -9 17 -21 28 -26 24 -49 67 -49 93
0 11 14 36 31 56 26 30 37 35 73 35 22 0 49 -7 59 -15 21 -16 67 -75 67 -87 0
-4 -24 -26 -54 -48 -58 -44 -62 -60 -19 -79 21 -9 30 -9 49 4 13 8 24 22 24
30 0 8 7 18 16 23 10 5 18 27 21 54 5 40 1 50 -31 92 -45 59 -47 94 -6 138 28
31 31 32 44 16 18 -24 26 -23 26 4 0 12 4 47 10 77 5 31 14 99 21 151 6 52 13
100 16 107 4 10 -16 13 -86 13 -90 0 -104 6 -77 32 7 8 17 25 21 38 4 14 10
27 14 30 3 3 35 64 70 135 35 72 68 138 73 147 7 14 -14 34 -109 105 -64 48
-124 95 -132 103 -9 8 -36 30 -59 49 -67 52 -72 69 -72 241 0 140 -1 150 -19
150 -10 0 -32 7 -47 15 -16 8 -38 15 -49 15 -21 1 -78 29 -59 30 6 0 25 19 42
43 17 23 53 65 80 94 l49 51 -6 138 -6 137 -30 18 c-42 24 -124 69 -160 87
-16 9 -32 18 -35 21 -3 3 -39 23 -80 44 -41 20 -102 52 -135 71 -33 19 -85 47
-115 63 -30 15 -57 31 -58 36 -2 4 -9 7 -16 7 -6 0 -27 11 -46 23 -38 26 -106
64 -250 140 -128 68 -155 83 -225 123 -33 19 -88 48 -122 65 -60 30 -61 31
-42 50 10 10 24 19 29 19 6 0 10 7 10 15 0 8 7 15 15 15 8 0 15 3 15 8 0 4 27
28 60 52 33 25 60 48 60 53 0 4 5 7 11 7 6 0 28 15 49 33 20 17 58 50 84 72
26 21 59 49 72 62 14 12 57 49 97 80 40 32 77 63 82 69 6 5 33 28 60 49 53 42
77 62 129 107 17 15 34 28 39 28 4 0 15 8 25 18 10 9 50 43 89 75 40 31 83 67
96 80 14 12 48 42 76 66 28 24 51 48 51 52 0 4 -69 77 -152 161 -84 85 -227
230 -318 322 -172 175 -174 178 -110 191 14 3 45 10 70 16 25 6 64 15 88 20
24 5 64 16 90 25 26 9 76 23 112 31 60 14 116 27 215 52 22 5 52 12 68 16 35
7 34 23 -3 63 -16 18 -30 37 -30 43 0 5 -4 9 -8 9 -5 0 -30 29 -56 65 -26 36
-53 71 -60 78 -6 7 -36 44 -66 82 -30 39 -57 72 -60 75 -3 3 -18 24 -34 48
-16 23 -33 42 -37 42 -5 0 -9 7 -9 15 0 8 -4 15 -8 15 -5 0 -30 29 -56 65 -26
36 -53 71 -60 78 -6 7 -36 44 -66 82 -30 39 -60 76 -67 83 -7 7 -13 17 -13 22
0 5 -6 15 -13 22 -7 7 -28 33 -47 58 -19 25 -37 47 -40 50 -3 3 -24 28 -45 55
-22 28 -42 52 -45 55 -3 3 -37 45 -75 95 -82 106 -96 123 -112 140 -7 8 -13
18 -13 24 0 6 -4 11 -8 11 -5 0 -29 28 -54 63 -26 34 -58 76 -71 92 -97 116
-111 144 -64 126 12 -5 60 -17 107 -26 47 -9 117 -23 155 -30 39 -8 97 -19
130 -26 58 -10 118 -22 277 -54 43 -8 113 -22 155 -31 43 -8 110 -22 148 -29
360 -73 365 -74 365 -55 0 14 29 106 49 155 41 100 136 265 152 265 5 0 9 5 9
10 0 19 192 200 211 200 9 0 1 35 -16 75 -37 85 -45 107 -45 116 0 6 -6 25
-14 42 -24 56 -36 88 -36 93 0 4 19 4 43 1 93 -10 245 -29 292 -37 64 -11 75
2 75 84 0 34 7 142 15 241 8 101 15 308 15 472 0 290 0 292 -25 340 -13 27
-40 99 -60 159 -19 60 -42 121 -50 136 -8 14 -15 31 -15 36 0 6 -13 39 -29 74
-16 35 -31 70 -34 78 -3 8 -6 -100 -7 -240z"/>
<path d="M6350 13827 c0 -9 -4 -17 -9 -17 -5 0 -12 -13 -16 -30 -4 -16 -11
-30 -16 -30 -5 0 -9 -5 -9 -12 0 -7 -38 -68 -84 -137 -97 -146 -126 -205 -126
-258 0 -21 -7 -64 -15 -95 -8 -31 -17 -86 -21 -122 -6 -62 -5 -66 13 -66 11 0
26 -7 33 -15 11 -13 9 -20 -13 -43 -32 -33 -34 -52 -7 -52 13 0 24 10 31 27 7
19 13 23 21 15 17 -17 -17 -62 -52 -69 -21 -4 -30 -12 -31 -27 -1 -11 -3 -30
-5 -41 -15 -105 -25 -312 -17 -369 5 -37 6 -92 2 -124 -8 -57 -4 -97 12 -117
12 -16 -18 -94 -44 -116 -12 -10 -32 -22 -44 -25 -13 -3 -23 -8 -23 -11 0 -6
41 -52 116 -129 85 -87 194 -257 194 -303 0 -18 18 -12 24 7 2 9 8 41 11 69 4
29 11 55 16 59 17 10 9 31 -31 75 -57 62 -66 79 -40 79 11 0 20 5 20 10 0 6 6
10 13 10 8 0 24 11 36 24 19 20 23 34 21 75 -3 60 -3 112 -3 201 0 36 0 103
-1 150 0 47 3 93 7 103 7 19 7 19 142 -137 28 -32 66 -76 87 -98 l36 -39 26
52 c15 28 25 53 24 55 -2 1 -37 25 -78 52 -41 27 -91 63 -110 80 -19 18 -38
32 -42 32 -5 0 -8 6 -8 14 0 8 -6 16 -13 19 -20 7 -71 121 -91 201 -9 38 -20
122 -23 187 -3 66 -9 119 -12 119 -3 0 -11 -8 -18 -19 -20 -31 -51 -32 -85 -2
-51 46 -34 111 29 111 13 0 23 -4 23 -10 0 -5 -11 -10 -24 -10 -36 0 -44 -35
-15 -66 29 -31 47 -30 59 1 6 16 14 23 25 19 11 -5 15 1 15 24 0 43 -9 62 -30
62 -12 0 -19 10 -22 30 -5 32 9 51 21 31 15 -23 41 0 41 35 0 18 6 69 14 111
27 146 39 218 42 253 7 80 15 137 25 168 6 18 8 36 5 39 -3 4 -6 -1 -6 -10z"/>
<path d="M8217 13537 c-4 -23 -13 -64 -21 -92 -8 -27 -21 -75 -29 -105 -46
-169 -71 -258 -97 -345 -51 -173 -150 -348 -252 -445 -78 -74 -97 -90 -107
-90 -6 0 -11 -3 -11 -8 0 -13 -240 -112 -273 -112 -10 0 -17 -4 -17 -9 0 -5
-10 -12 -22 -14 -19 -4 -19 -4 5 -6 16 0 47 3 70 9 23 5 87 14 142 20 169 16
296 30 397 42 105 12 115 18 191 120 31 43 97 167 97 186 0 6 5 12 10 12 6 0
10 8 10 18 0 9 7 31 17 47 19 36 23 122 6 156 -18 37 -53 160 -53 185 0 13 -6
51 -14 86 -8 35 -18 134 -21 221 -7 158 -17 203 -28 124z"/>
<path d="M6375 13249 c-9 -40 8 -60 32 -36 14 13 15 21 5 42 -16 34 -29 32
-37 -6z"/>
<path d="M6050 13019 c0 -18 2 -19 15 -9 15 12 12 30 -6 30 -5 0 -9 -10 -9
-21z"/>
<path d="M6820 12265 c7 -8 24 -15 39 -15 25 1 25 1 7 15 -11 8 -29 15 -39 15
-16 0 -17 -3 -7 -15z"/>
<path d="M9087 12083 c4 -10 9 -20 12 -23 3 -3 17 -27 31 -55 14 -27 28 -52
31 -55 11 -10 79 -128 79 -138 0 -6 4 -12 8 -14 11 -4 82 -123 82 -137 0 -6 5
-11 10 -11 6 0 10 -5 10 -11 0 -6 23 -48 50 -94 28 -46 50 -87 50 -93 0 -6 4
-12 8 -14 11 -4 82 -123 82 -137 0 -6 4 -11 8 -11 5 0 21 -24 36 -52 l28 -53
-5 172 c-4 141 -8 175 -21 188 -9 9 -16 23 -16 31 0 8 -4 14 -8 14 -4 0 -13
12 -20 28 -6 15 -20 41 -31 57 -11 17 -26 41 -33 55 -62 114 -133 220 -151
226 -26 8 -43 24 -51 49 -3 11 -21 37 -39 58 -32 35 -37 37 -95 37 -54 0 -61
-2 -55 -17z"/>
<path d="M4953 11563 c9 -2 25 -2 35 0 9 3 1 5 -18 5 -19 0 -27 -2 -17 -5z"/>
<path d="M5048 11553 c7 -3 16 -2 19 1 4 3 -2 6 -13 5 -11 0 -14 -3 -6 -6z"/>
<path d="M4980 11533 l-25 -15 25 6 c14 3 31 6 38 6 7 0 10 5 7 10 -8 13 -14
12 -45 -7z"/>
<path d="M4895 11470 c-3 -6 1 -7 9 -4 18 7 21 14 7 14 -6 0 -13 -4 -16 -10z"/>
<path d="M4856 11415 c-9 -26 -7 -32 5 -12 6 10 9 21 6 23 -2 3 -7 -2 -11 -11z"/>
<path d="M5048 11419 c-31 -8 -98 -76 -98 -99 0 -9 -6 -25 -14 -36 -8 -11 -18
-38 -21 -60 -4 -21 -13 -45 -19 -53 -15 -20 -15 -423 0 -442 7 -8 15 -34 19
-58 13 -77 42 -129 82 -146 59 -25 90 -20 128 23 19 20 35 46 35 57 0 276 6
414 20 430 18 21 20 175 3 197 -5 7 -13 27 -17 43 -8 35 -36 94 -53 113 -7 7
-13 17 -13 22 0 13 -23 17 -52 9z"/>
<path d="M10793 11402 c-39 -18 -47 -57 -20 -90 8 -10 19 -4 53 29 24 23 41
46 38 51 -13 21 -40 25 -71 10z"/>
<path d="M10899 11351 c-33 -13 -91 -72 -85 -87 16 -42 89 -20 112 34 12 29
12 38 2 48 -7 6 -20 9 -29 5z"/>
<path d="M4791 11254 c0 -11 3 -14 6 -6 3 7 2 16 -1 19 -3 4 -6 -2 -5 -13z"/>
<path d="M4772 11200 c0 -14 2 -19 5 -12 2 6 2 18 0 25 -3 6 -5 1 -5 -13z"/>
<path d="M10507 11154 l-27 -25 36 -45 c20 -24 38 -43 40 -42 5 6 -9 138 -15
138 -3 0 -19 -12 -34 -26z"/>
<path d="M4763 11125 c0 -22 2 -30 4 -17 2 12 2 30 0 40 -3 9 -5 -1 -4 -23z"/>
<path d="M4743 10970 c0 -30 2 -43 4 -27 2 15 2 39 0 55 -2 15 -4 2 -4 -28z"/>
<path d="M5895 10949 c17 -5 53 -8 80 -8 28 1 63 -4 78 -10 37 -14 37 -14 37
9 0 19 -6 20 -112 19 -85 -1 -105 -3 -83 -10z"/>
<path d="M4763 10775 c0 -22 2 -30 4 -17 2 12 2 30 0 40 -3 9 -5 -1 -4 -23z"/>
<path d="M4772 10700 c0 -14 2 -19 5 -12 2 6 2 18 0 25 -3 6 -5 1 -5 -13z"/>
<path d="M4801 10584 c0 -11 3 -14 6 -6 3 7 2 16 -1 19 -3 4 -6 -2 -5 -13z"/>
<path d="M5791 9713 c0 -7 -9 -13 -18 -13 -15 0 -14 -2 3 -15 10 -8 26 -14 34
-15 10 0 11 3 4 8 -7 4 -14 16 -17 27 -2 11 -5 14 -6 8z"/>
<path d="M7116 9688 c-3 -13 -6 -37 -6 -54 0 -39 -28 -72 -72 -85 -20 -6 -158
-9 -358 -8 -440 3 -540 1 -540 -11 0 -5 5 -10 10 -10 12 0 73 -41 78 -52 2 -5
19 -8 38 -8 19 0 34 -4 34 -10 0 -5 -8 -10 -17 -10 -11 0 -5 -8 18 -25 50 -37
98 -76 131 -107 16 -16 32 -28 36 -28 4 0 26 -17 48 -38 23 -20 59 -51 80 -68
22 -18 55 -45 74 -60 19 -16 41 -33 48 -39 7 -5 25 -21 41 -35 15 -14 49 -43
77 -65 27 -21 51 -43 54 -47 3 -4 11 6 17 22 10 28 9 31 -36 67 -25 21 -50 41
-56 45 -5 4 -32 28 -60 53 -27 25 -53 45 -56 45 -3 0 -17 10 -31 23 -37 34
-108 91 -127 101 -9 5 -21 14 -28 20 -31 28 -41 34 -61 40 -12 4 -22 11 -22
16 0 4 -9 10 -20 13 -71 18 20 24 426 26 276 1 450 5 457 11 48 41 62 50 72
50 17 0 25 23 25 76 0 33 4 44 15 44 9 0 18 -7 21 -15 14 -35 41 -36 106 -5
l63 30 -80 1 c-137 3 -171 11 -207 50 -23 25 -34 29 -83 29 -43 0 -59 4 -72
20 -22 26 -29 25 -37 -2z"/>
<path d="M5028 9693 c12 -2 30 -2 40 0 9 3 -1 5 -23 4 -22 0 -30 -2 -17 -4z"/>
<path d="M4705 8820 c-7 -12 2 -30 16 -30 5 0 9 9 9 20 0 21 -15 27 -25 10z"/>
<path d="M5545 8670 c-124 -26 -198 -49 -217 -68 -7 -7 -9 -47 -5 -124 4 -62
11 -250 16 -418 6 -168 15 -375 20 -460 6 -85 15 -243 21 -350 6 -107 15 -199
20 -204 18 -18 219 -19 324 -2 114 19 291 72 307 93 6 7 17 13 23 13 6 0 40
24 75 53 106 86 196 231 242 392 20 71 22 102 22 270 0 143 -4 206 -17 253 -9
35 -16 71 -16 80 0 9 -7 30 -15 46 -8 15 -15 35 -15 43 0 18 -69 147 -81 151
-5 2 -9 10 -9 17 0 20 -123 129 -181 158 -85 45 -197 66 -344 65 -71 0 -148
-4 -170 -8z m171 -130 c22 -67 32 -306 18 -425 -14 -120 -29 -178 -69 -257
-37 -73 -113 -168 -135 -168 -5 0 -10 -4 -10 -9 0 -11 -62 -51 -79 -51 -8 0
-11 118 -9 452 l3 452 35 12 c41 14 161 32 205 30 25 -1 32 -7 41 -36z m128
-2 c3 -13 8 -52 11 -88 4 -36 8 -76 10 -90 1 -14 -1 -65 -5 -115 l-7 -90 -2
105 c-1 58 -6 128 -11 155 -20 107 -23 145 -12 145 7 0 14 -10 16 -22z m-379
-1215 c3 -109 8 -203 10 -209 9 -31 220 -33 360 -4 53 12 100 18 103 15 3 -3
0 -5 -7 -5 -7 0 -27 -6 -44 -14 -88 -37 -144 -46 -300 -46 -119 0 -157 3 -157
13 -3 87 2 432 6 439 17 27 23 -12 29 -189z"/>
<path d="M5559 8454 c-10 -12 -10 -35 -1 -117 7 -56 13 -176 13 -267 1 -135 3
-158 11 -125 6 22 14 42 18 45 8 6 29 149 37 250 3 35 0 101 -7 147 -12 75
-15 83 -35 83 -13 0 -28 -7 -36 -16z"/>
<path d="M7011 8460 c0 -8 4 -24 9 -35 5 -13 9 -14 9 -5 0 8 -4 24 -9 35 -5
13 -9 14 -9 5z"/>
<path d="M7041 8394 c0 -11 3 -14 6 -6 3 7 2 16 -1 19 -3 4 -6 -2 -5 -13z"/>
<path d="M4260 8386 c-14 -18 -6 -50 13 -44 15 6 22 37 10 49 -6 6 -15 4 -23
-5z"/>
<path d="M4162 8365 c0 -16 2 -22 5 -12 2 9 2 23 0 30 -3 6 -5 -1 -5 -18z"/>
<path d="M4080 8260 c0 -28 4 -40 14 -40 21 0 25 22 9 53 -18 37 -23 34 -23
-13z"/>
<path d="M6977 6898 c-60 -59 -115 -108 -123 -108 -8 0 -14 -4 -14 -9 0 -9
-107 -81 -121 -81 -5 0 -9 -4 -9 -10 0 -5 -11 -12 -25 -16 -14 -3 -25 -10 -25
-14 0 -5 -13 -11 -30 -15 -16 -4 -30 -10 -30 -15 0 -5 -13 -11 -30 -15 -16 -4
-30 -11 -30 -16 0 -5 -5 -9 -11 -9 -7 0 -30 -9 -53 -19 -78 -36 -114 -51 -125
-51 -6 0 -19 -4 -29 -9 -9 -5 -51 -19 -92 -32 -41 -12 -84 -25 -95 -30 -19 -9
-50 -16 -180 -43 -33 -7 -67 -15 -75 -19 -21 -9 -276 -44 -480 -66 -47 -5 -89
-10 -95 -11 -5 -1 19 -10 54 -21 l63 -20 -31 -24 -32 -23 -62 19 c-76 23 -77
23 -77 1 0 -41 23 -53 115 -62 50 -5 112 -12 139 -16 26 -4 78 -2 115 4 36 6
122 16 191 21 136 11 289 32 305 42 6 4 40 10 78 14 37 4 69 11 72 15 3 5 32
11 65 15 33 4 62 11 65 15 3 4 28 11 56 15 28 4 63 13 77 21 15 8 34 14 43 14
8 0 19 4 25 9 5 4 34 16 64 26 88 27 320 136 348 162 7 7 19 13 27 13 7 0 15
4 17 8 2 4 21 19 43 32 41 25 43 27 84 60 13 11 27 20 31 20 10 0 150 140 150
150 0 10 -51 60 -61 60 -3 0 -17 10 -31 23 -74 66 -129 107 -142 105 -6 -1
-60 -50 -119 -110z"/>
<path d="M4744 6295 c-4 -8 -12 -15 -20 -15 -22 0 -17 -14 14 -37 17 -13 52
-23 93 -27 61 -7 68 -5 95 17 54 45 113 62 129 37 11 -18 -15 -50 -43 -51
l-27 -1 27 -8 c38 -11 148 -23 148 -16 0 4 -19 31 -41 61 l-41 55 -165 0
c-136 0 -165 -3 -169 -15z"/>
<path d="M4600 6100 c-105 -13 -160 -60 -160 -139 -1 -25 -5 -65 -9 -89 -6
-30 -5 -45 4 -50 22 -13 22 -37 1 -47 -16 -8 -22 -22 -24 -54 -3 -40 -2 -42
20 -36 62 18 89 104 51 162 -10 15 -13 24 -7 20 16 -10 25 18 11 33 -9 10 -9
11 1 6 6 -4 12 -3 12 2 0 5 -9 12 -19 15 -13 3 -18 12 -16 23 2 11 4 23 4 27
1 5 6 5 12 2 6 -4 8 -13 5 -20 -3 -8 2 -11 13 -8 9 2 22 17 28 32 10 29 42 41
105 41 16 0 46 8 67 18 37 18 39 18 62 1 19 -15 39 -19 99 -17 43 1 82 7 90
14 12 10 55 13 55 3 0 -1 17 -3 38 -4 21 -1 34 1 27 5 -8 5 -6 11 5 20 8 7 15
19 15 27 0 11 -17 13 -80 12 -44 -1 -82 -5 -85 -9 -2 -4 7 -6 20 -4 32 3 42
-14 19 -31 -17 -12 -21 -10 -39 15 -11 16 -29 31 -40 34 -27 8 -217 5 -285 -4z"/>
<path d="M10557 5877 c7 -12 10 -15 43 -56 11 -13 20 -30 20 -38 0 -7 5 -13
10 -13 6 0 10 -6 10 -13 0 -7 9 -29 20 -50 11 -20 20 -45 20 -55 0 -10 5 -23
10 -28 6 -6 13 -34 17 -63 l6 -52 21 19 c61 56 103 55 163 -1 l46 -43 -57 -54
c-60 -56 -68 -75 -36 -85 29 -9 60 12 66 45 5 22 14 31 35 35 28 6 39 28 20
39 -4 3 -11 18 -14 33 -3 16 -14 37 -25 49 -28 29 -42 59 -42 87 0 15 -16 40
-44 68 -57 58 -67 64 -191 128 -16 9 -32 18 -35 21 -14 14 -70 38 -63 27z"/>
<path d="M4272 5658 c-17 -17 -15 -53 3 -68 13 -11 15 -6 15 34 0 50 -1 51
-18 34z"/>
<path d="M4447 5648 c-10 -5 -21 -7 -26 -4 -15 10 -31 -53 -41 -168 -6 -61
-15 -129 -20 -151 -5 -22 -10 -59 -10 -83 0 -24 -6 -87 -14 -140 -14 -91 -24
-175 -61 -494 -9 -73 -22 -180 -30 -238 -9 -58 -15 -121 -15 -140 0 -19 -7
-84 -15 -145 -21 -164 -54 -448 -90 -795 -32 -309 -44 -459 -47 -569 l-3 -115
26 0 c50 0 55 16 67 214 6 102 18 253 27 335 8 83 21 215 29 295 8 80 17 159
21 175 3 17 10 77 15 135 6 58 17 166 25 240 9 74 22 191 29 260 7 69 15 125
16 125 2 0 9 59 16 130 7 72 20 186 29 255 9 69 22 181 30 250 8 69 22 181 31
250 9 69 16 162 16 208 0 45 4 82 9 82 5 0 9 13 9 29 0 17 5 33 10 36 27 17
-5 39 -33 23z"/>
<path d="M4076 5514 c-21 -21 -20 -57 2 -77 16 -15 20 -13 56 17 l39 33 -21
21 c-26 26 -54 28 -76 6z"/>
<path d="M10775 5480 c-19 -21 -14 -70 8 -70 22 0 70 57 64 74 -9 22 -50 20
-72 -4z"/>
<path d="M10575 5332 c-15 -10 -16 -29 -2 -29 7 0 13 9 13 19 0 10 0 18 -1 18
0 0 -4 -4 -10 -8z"/>
<path d="M4110 5283 c0 -16 5 -34 11 -40 7 -7 3 -16 -15 -31 -14 -11 -26 -28
-26 -39 0 -10 -11 -54 -25 -96 -14 -43 -30 -97 -35 -120 -5 -23 -16 -69 -25
-102 -31 -126 -47 -192 -61 -260 -15 -70 -25 -107 -50 -178 -8 -20 -14 -49
-14 -64 0 -14 -6 -49 -14 -77 -8 -28 -21 -78 -30 -111 -8 -33 -28 -109 -44
-170 -32 -117 -77 -301 -93 -375 -5 -25 -13 -54 -18 -65 -4 -11 -13 -40 -19
-64 l-10 -43 77 6 c42 4 131 14 198 23 l123 16 4 31 c3 17 7 65 10 107 3 41
10 107 15 145 13 89 31 244 42 363 4 52 13 126 19 165 14 102 30 237 40 345 5
52 14 126 19 165 15 103 39 301 46 376 3 36 9 75 12 87 4 20 1 22 -44 21 -26
-1 -58 2 -70 6 -20 7 -23 5 -23 -21z"/>
<path d="M10604 5300 c-5 -5 -22 -11 -36 -12 -15 -1 -24 -6 -22 -10 3 -4 -1
-8 -8 -8 -8 0 -21 -9 -31 -20 -10 -12 -23 -18 -30 -13 -6 4 1 -8 17 -27 16
-19 30 -33 32 -30 1 3 14 -6 28 -19 14 -13 23 -28 19 -34 -3 -6 -1 -7 5 -3 6
3 13 2 17 -4 3 -5 15 -10 26 -10 16 0 19 7 19 48 0 69 -11 123 -23 115 -6 -4
-8 2 -5 15 7 25 6 26 -8 12z"/>
<path d="M10570 5103 c0 -18 27 -36 35 -23 4 6 4 14 1 17 -3 4 -6 0 -6 -8 -1
-10 -5 -8 -15 5 -8 11 -15 15 -15 9z"/>
<path d="M6891 4074 c-39 -17 -133 -23 -173 -10 -27 8 -28 7 -28 -34 0 -92
-58 -423 -107 -610 -33 -125 -72 -256 -89 -298 -8 -18 -14 -40 -14 -48 0 -9
-6 -30 -14 -47 -8 -18 -16 -41 -19 -52 -3 -11 -15 -45 -27 -75 -12 -30 -26
-73 -31 -95 -6 -21 -14 -44 -18 -50 -5 -5 -12 -25 -16 -42 -3 -18 -11 -33 -16
-33 -5 0 -9 -7 -9 -16 0 -14 -12 -45 -56 -141 -8 -17 -14 -36 -14 -42 0 -6 -4
-11 -10 -11 -5 0 -10 -6 -10 -12 0 -14 -100 -220 -111 -228 -3 -3 -9 -14 -13
-26 -14 -45 -116 -124 -160 -124 -9 0 -16 -4 -16 -9 0 -5 -17 -12 -37 -16 -21
-4 -42 -10 -48 -15 -9 -7 -44 -17 -160 -43 -27 -6 -52 -14 -55 -18 -3 -3 -32
-11 -65 -17 -33 -6 -91 -18 -130 -26 -38 -9 -97 -21 -130 -27 -33 -6 -76 -15
-95 -20 -19 -5 -65 -14 -102 -19 -38 -6 -98 -15 -135 -20 -38 -6 -81 -7 -98
-4 -18 4 -1 -9 45 -33 92 -48 120 -64 140 -80 45 -35 203 -31 425 11 44 9 112
22 150 29 39 7 77 16 85 19 8 4 40 11 70 17 85 16 185 40 215 51 14 5 37 10
51 10 13 0 24 4 24 9 0 6 20 13 45 17 25 3 45 10 45 14 0 4 15 10 33 14 74 14
168 81 183 131 4 11 9 22 13 25 10 8 111 216 111 228 0 7 5 12 10 12 6 0 10 8
10 18 0 10 6 26 14 37 7 11 17 35 21 53 3 17 10 32 15 32 4 0 11 16 14 35 4
19 11 35 16 35 6 0 10 8 10 18 0 9 6 29 14 44 8 15 17 40 21 57 4 17 11 33 16
36 5 4 9 14 9 23 0 9 6 29 14 44 8 15 17 42 21 60 4 18 11 38 15 43 4 6 11 26
15 45 4 19 10 40 14 45 9 13 66 200 75 245 3 14 15 36 27 49 l22 23 18 -23
c10 -13 19 -29 19 -35 0 -6 6 -17 14 -23 20 -17 26 98 26 532 l0 377 -22 -1
c-13 0 -38 -7 -57 -15z"/>
<path d="M0 500 l0 -500 7500 0 7500 0 0 500 0 500 -7500 0 -7500 0 0 -500z
m860 144 l0 -56 34 6 c41 8 92 -11 121 -44 17 -19 21 -39 24 -141 l3 -119 -36
0 -36 0 0 104 c0 121 -9 139 -69 134 l-36 -3 -3 -117 -3 -118 -34 0 -35 0 0
205 0 205 35 0 35 0 0 -56z m630 -54 l49 0 3 37 c2 30 9 41 36 56 l32 19 0
-56 0 -56 41 0 c39 0 40 -1 37 -32 -3 -30 -6 -33 -40 -36 l-38 -3 0 -66 c0
-71 16 -103 52 -103 13 0 18 -8 18 -30 0 -28 -3 -30 -36 -30 -75 0 -104 44
-104 160 l0 70 -50 0 -50 0 0 -69 c0 -74 14 -101 51 -101 14 0 19 -7 19 -30 0
-28 -2 -30 -39 -30 -28 0 -49 7 -68 24 -26 23 -28 30 -31 115 -3 70 -7 91 -18
91 -9 0 -14 12 -14 35 0 24 5 35 15 35 11 0 15 11 15 38 0 33 4 40 33 54 l32
15 3 -53 3 -54 49 0z m1010 55 l0 -55 35 0 c33 0 35 -2 35 -35 0 -33 -2 -35
-35 -35 l-35 0 0 -76 c0 -75 0 -76 30 -87 23 -9 30 -17 30 -39 0 -26 -3 -28
-37 -28 -71 1 -93 37 -93 148 0 71 -2 80 -20 85 -15 4 -20 14 -20 36 0 24 4
31 20 31 16 0 20 7 20 38 0 30 5 40 28 54 15 9 30 17 35 17 4 1 7 -24 7 -54z
m710 -56 l0 -111 47 56 c44 53 50 56 92 56 l45 0 -30 -32 c-16 -18 -31 -35
-34 -38 -3 -3 -17 -19 -33 -36 l-28 -31 61 -78 c33 -43 60 -79 60 -81 0 -2
-17 -4 -39 -4 -35 0 -42 5 -80 55 -23 31 -46 53 -52 50 -5 -4 -9 -28 -9 -56
l0 -49 -35 0 -35 0 0 205 0 205 35 0 35 0 0 -111z m9800 31 c0 -33 -4 -60 -10
-60 -6 0 -10 27 -10 60 0 33 4 60 10 60 6 0 10 -27 10 -60z m61 13 l15 -48 15
44 c22 68 39 65 39 -8 0 -65 -19 -87 -21 -23 l-1 37 -12 -34 c-17 -47 -30 -48
-43 -4 l-10 38 -2 -37 c-2 -59 -21 -45 -21 15 0 83 19 91 41 20z m153 -17 c19
-58 19 -56 6 -56 -5 0 -10 7 -10 15 0 9 -9 15 -25 15 -16 0 -25 -6 -25 -15 0
-8 -4 -15 -10 -15 -5 0 -10 2 -10 4 0 3 21 65 35 105 8 20 20 4 39 -53z m90
58 c28 -11 17 -24 -15 -17 l-30 6 3 -44 c2 -36 7 -44 23 -44 25 0 32 32 8 38
-15 4 -14 5 4 6 25 1 34 -17 21 -41 -10 -21 -48 -24 -66 -6 -7 7 -12 28 -12
48 0 51 23 70 64 54z m106 -4 c0 -5 -11 -10 -25 -10 -16 0 -25 -6 -25 -15 0
-8 9 -15 20 -15 11 0 20 -4 20 -10 0 -5 -9 -10 -20 -10 -33 0 -26 -38 8 -43
22 -3 20 -4 -10 -6 l-38 -1 0 53 c0 30 3 57 7 60 10 11 63 8 63 -3z m57 -82
c-2 -18 -4 -4 -4 32 0 36 2 50 4 33 2 -18 2 -48 0 -65z m94 82 c14 -8 19 -21
19 -48 0 -45 -14 -62 -52 -62 -28 0 -28 1 -28 60 0 54 2 60 21 60 11 0 29 -5
40 -10z m169 1 c0 -15 -43 -112 -47 -107 -3 2 5 26 16 51 12 26 21 49 21 51 0
1 -15 5 -32 7 -32 4 -32 4 5 5 20 1 37 -2 37 -7z m167 -3 c6 -7 10 -33 9 -58
-1 -44 -2 -45 -36 -46 l-35 -2 33 5 c39 5 47 43 10 44 l-23 0 23 11 c33 16 24
44 -13 41 -22 -2 -26 0 -15 7 21 13 36 12 47 -2z m187 -4 c20 -19 21 -78 1
-94 -41 -34 -83 36 -51 85 19 29 29 31 50 9z m76 3 c-20 -10 -25 -20 -25 -52
0 -33 3 -40 20 -40 29 0 31 33 3 45 l-23 10 25 -3 c21 -2 25 -7 25 -32 0 -27
-3 -30 -30 -30 -28 0 -30 3 -33 41 -3 44 15 74 46 74 12 0 9 -4 -8 -13z m94 7
c22 -8 20 -40 -4 -74 l-20 -29 27 -4 c23 -3 21 -4 -9 -6 -45 -1 -47 7 -13 39
33 31 30 66 -5 62 -20 -2 -22 0 -10 8 18 12 15 11 34 4z m116 -3 c0 -15 -43
-112 -47 -107 -3 2 5 26 16 51 12 26 21 49 21 51 0 1 -15 5 -32 7 -32 4 -32 4
5 5 20 1 37 -2 37 -7z m90 -2 c0 -15 -42 -110 -47 -106 -2 2 6 25 17 51 11 26
20 49 20 51 0 2 -15 6 -32 8 -32 4 -32 4 5 5 20 1 37 -3 37 -9z m-662 -56 l-2
-58 -3 52 c-3 43 -7 51 -20 46 -11 -4 -14 -2 -9 5 4 7 14 12 22 12 11 0 14
-13 12 -57z m180 0 l-2 -58 -3 52 c-3 44 -7 51 -21 47 -14 -5 -15 -4 -2 5 26
19 30 12 28 -46z m-371 15 c-3 -8 -6 -5 -6 6 -1 11 2 17 5 13 3 -3 4 -12 1
-19z m-12875 -49 c14 -8 15 -14 7 -39 -9 -26 -13 -28 -35 -19 -38 14 -80 11
-95 -7 -11 -14 -11 -18 4 -29 10 -7 35 -15 57 -19 96 -15 119 -117 38 -166
-37 -22 -107 -26 -157 -9 -33 12 -34 13 -22 44 7 17 17 20 82 20 67 0 74 2 74
20 0 19 -16 27 -76 40 -48 9 -74 39 -74 83 0 47 24 78 69 91 33 10 100 5 128
-10z m1131 10 c51 -14 77 -57 77 -126 l0 -53 -85 0 c-75 0 -85 -2 -85 -18 0
-10 5 -23 12 -30 15 -15 64 -16 73 -2 9 14 37 12 60 -5 19 -15 19 -16 -8 -43
-24 -23 -35 -27 -88 -27 -56 0 -63 3 -90 33 -27 31 -29 37 -29 121 0 100 16
133 73 150 43 12 46 12 90 0z m265 -26 c3 -31 1 -33 -27 -33 -49 0 -61 -29
-61 -142 l0 -98 -30 0 -30 0 0 123 c0 115 2 125 23 145 28 27 65 42 97 39 20
-2 26 -8 28 -34z m182 26 c54 -11 56 -15 39 -53 -10 -21 -15 -23 -36 -15 -37
14 -79 11 -94 -7 -11 -14 -11 -18 4 -29 10 -7 35 -15 56 -19 52 -8 80 -33 87
-77 12 -74 -74 -125 -178 -105 -52 10 -61 19 -48 48 11 23 16 24 83 24 60 -1
72 2 75 16 4 19 -12 28 -86 48 -34 9 -46 18 -60 46 -16 34 -15 37 3 72 14 25
31 41 55 49 44 15 40 15 100 2z m724 -3 c30 -12 66 -49 66 -67 0 -4 -13 -12
-29 -17 -23 -8 -31 -7 -45 9 -19 23 -59 25 -80 3 -19 -19 -22 -134 -4 -152 19
-19 76 -15 89 7 10 15 16 16 41 7 34 -13 36 -29 4 -61 -46 -45 -144 -45 -187
1 -20 21 -24 38 -27 99 -2 40 1 89 7 108 22 64 95 92 165 63z m434 -18 c2 -19
-2 -28 -18 -33 -37 -12 -64 27 -38 53 21 21 53 10 56 -20z m-2338 -93 c0 -105
2 -115 20 -125 12 -6 33 -10 48 -8 l27 3 3 123 3 122 34 0 35 0 0 -143 0 -144
-39 -11 c-82 -25 -162 -8 -186 39 -11 20 -15 61 -15 144 l0 115 35 0 35 0 0
-115z m1610 81 c0 -34 -1 -35 -42 -38 -43 -3 -43 -3 -46 -45 -3 -42 -4 -43
-39 -43 l-35 0 4 57 c6 75 36 103 109 103 l49 0 0 -34z m95 -163 c-1 -75 -29
-103 -102 -103 l-54 0 3 33 c3 29 6 32 43 37 39 5 40 6 43 48 3 42 4 43 35 40
32 -3 32 -4 32 -55z m10637 -25 c-3 -61 -12 -60 -12 2 0 29 3 50 7 47 3 -4 6
-26 5 -49z m671 9 c14 11 17 12 10 2 -10 -12 -9 -20 4 -40 16 -24 16 -24 -3
-6 -12 9 -23 17 -27 17 -3 0 -8 -8 -10 -17 -3 -10 -4 7 -4 37 0 33 2 42 4 22
4 -34 5 -34 26 -15z m-501 -8 c-3 -20 0 -34 9 -40 11 -7 11 -9 -2 -9 -12 0
-18 11 -21 41 -4 41 -1 52 12 44 4 -2 5 -18 2 -36z m50 0 c-3 -20 0 -34 9 -40
11 -7 11 -9 -2 -9 -12 0 -18 11 -22 38 -4 39 -1 55 12 48 4 -3 6 -19 3 -37z
m250 23 c-16 -5 -15 -59 1 -65 7 -4 6 -6 -4 -6 -13 -1 -18 10 -21 40 -4 46 -2
50 20 41 10 -4 12 -7 4 -10z m-525 -3 c-9 -6 -14 -15 -11 -21 4 -7 2 -8 -5 -4
-14 9 3 36 23 36 6 0 3 -5 -7 -11z m98 0 c11 -16 1 -19 -13 -3 -7 8 -8 14 -3
14 5 0 13 -5 16 -11z m253 -1 c7 -7 12 -16 12 -22 0 -5 -6 -2 -13 9 -17 23
-34 13 -34 -19 0 -18 6 -26 23 -29 20 -4 19 -4 -3 -3 -21 1 -29 7 -31 24 -3
22 13 52 27 52 4 0 12 -5 19 -12z m60 0 c-9 -7 -19 -26 -21 -43 -4 -27 -4 -27
-6 7 -1 34 7 45 33 47 6 1 2 -5 -6 -11z m50 5 c-24 -6 -23 -20 2 -33 30 -16
25 -40 -7 -39 -24 2 -25 2 -5 6 27 5 28 10 0 32 -23 19 -17 42 10 40 15 -1 15
-2 0 -6z m142 -8 c17 -20 4 -65 -18 -65 -22 0 -42 19 -42 40 0 35 38 51 60 25z
m58 4 c-10 -5 -22 -17 -27 -27 -6 -9 -11 -12 -11 -5 0 15 28 43 43 43 7 0 4
-5 -5 -11z m256 -5 c9 -8 16 -20 16 -26 0 -6 -8 0 -18 12 -22 27 -42 19 -42
-17 0 -22 4 -25 26 -20 16 3 22 1 16 -5 -30 -30 -69 25 -42 58 16 18 25 18 44
-2z m124 3 c6 -5 11 -23 11 -40 l-2 -32 -6 35 c-4 22 -12 35 -21 35 -9 0 -17
-13 -21 -35 -6 -35 -6 -35 -8 -4 0 16 -5 34 -10 40 -12 11 38 12 57 1z m-1390
-28 c-3 -8 -7 -3 -11 10 -4 17 -3 21 5 13 5 -5 8 -16 6 -23z m42 28 c0 -10
-33 -68 -36 -64 -6 6 20 67 28 67 4 0 8 -2 8 -3z m127 -20 l12 28 -6 -30 c-8
-43 -21 -52 -29 -22 -3 15 -10 24 -15 21 -11 -6 -12 10 -1 20 4 5 11 -4 16
-18 l10 -26 13 27z m43 -17 c4 0 10 10 14 23 5 18 8 20 16 7 5 -8 10 -19 10
-25 0 -5 -4 -3 -9 4 -8 12 -11 9 -16 -12 -4 -15 -11 -27 -15 -27 -9 0 -20 37
-19 60 1 8 4 5 6 -7 2 -13 8 -23 13 -23z m330 5 c0 -32 -2 -35 -30 -35 -16 0
-30 4 -30 8 0 5 10 8 23 8 17 -1 23 5 25 27 5 38 12 34 12 -8z m612 10 c-3
-19 1 -27 19 -34 24 -10 24 -10 2 -10 -24 -1 -42 37 -28 58 10 17 13 13 7 -14z
m151 -7 c-8 -46 -13 -48 -13 -5 0 21 4 37 10 37 5 0 7 -14 3 -32z m-1206 0
c-3 -8 -6 -5 -6 6 -1 11 2 17 5 13 3 -3 4 -12 1 -19z m-32 -19 c-6 -17 -9 -19
-16 -8 -5 8 -9 19 -9 24 0 6 5 3 10 -5 8 -13 10 -12 10 4 0 11 3 17 6 13 3 -3
3 -15 -1 -28z m201 -5 c-4 -9 -9 -15 -11 -12 -3 3 -3 13 1 22 4 9 9 15 11 12
3 -3 3 -13 -1 -22z m109 5 c0 -8 -11 -14 -28 -15 -26 -1 -26 -1 -2 3 23 4 24
7 13 20 -11 14 -11 15 2 11 8 -2 15 -11 15 -19z m-263 -11 c-7 -7 -12 -8 -12
-2 0 14 12 26 19 19 2 -3 -1 -11 -7 -17z m904 -6 c-10 -2 -22 0 -28 6 -6 6 0
7 19 4 21 -5 23 -7 9 -10z"/>
<path d="M13187 630 c-3 -12 0 -20 8 -20 8 0 11 8 8 20 -3 11 -7 20 -8 20 -1
0 -5 -9 -8 -20z"/>
<path d="M13520 621 c0 -43 9 -55 34 -45 11 4 16 19 16 45 0 35 -3 39 -25 39
-22 0 -25 -4 -25 -39z"/>
<path d="M14050 644 c-13 -34 -2 -74 20 -74 29 0 42 64 18 88 -18 18 -27 15
-38 -14z"/>
<path d="M1792 518 c-7 -7 -12 -22 -12 -35 0 -21 4 -23 50 -23 46 0 50 2 50
25 0 38 -60 61 -88 33z"/>
<path d="M3461 564 c0 -11 3 -14 6 -6 3 7 2 16 -1 19 -3 4 -6 -2 -5 -13z"/>
<path d="M13984 376 c-9 -24 4 -48 23 -44 12 2 18 12 18 28 0 29 -32 41 -41
16z"/>
</g>
</svg>
